<svg width="202" height="43" viewBox="0 0 202 43" fill="none" xmlns="http://www.w3.org/2000/svg">
<path d="M93.461 37.0844C91.001 36.2744 87.071 35.9744 84.741 37.1244C84.551 37.2144 84.581 37.5644 84.751 37.6544C86.531 38.5544 88.651 38.2944 90.621 38.4144C93.321 38.5744 95.731 39.5344 97.261 41.8244C97.881 42.7444 98.371 41.1544 98.051 40.5644C97.051 38.7544 95.401 37.7344 93.471 37.0944L93.461 37.0844Z" fill="url(#paint0_linear_42_495)"/>
<path d="M16.461 14.9742C16.401 14.9642 16.341 14.9442 16.281 14.9342C16.121 14.8942 15.931 14.8942 15.811 15.0442C15.291 15.6642 15.281 16.2242 15.261 17.0142C15.191 19.4942 14.321 21.6442 12.361 23.2542C11.301 24.1242 9.33099 25.4942 7.91099 25.5142C7.88099 25.5142 7.88099 25.5742 7.91099 25.5942C9.27099 26.2542 10.041 26.9042 11.561 26.4642C12.951 26.0542 14.101 25.2542 15.091 24.2142C17.011 22.1842 17.871 18.7042 17.171 16.0042C17.081 15.6542 16.881 15.0942 16.471 14.9842L16.461 14.9742Z" fill="url(#paint1_linear_42_495)"/>
<path d="M55.471 25.7842C56.881 27.3842 58.751 28.5642 61.141 29.2642C65.411 30.5042 70.511 27.6842 74.581 26.0242C78.091 26.3842 81.691 26.1842 85.391 25.1742C89.731 23.9942 95.221 20.2142 94.781 15.0442C94.331 9.74415 91.161 8.13415 86.091 7.91415C83.251 7.79415 80.171 9.01416 78.691 11.5542C78.031 12.6842 77.441 14.3942 78.191 15.5742C79.261 17.2542 83.141 18.8042 84.421 16.5142C84.761 15.9042 84.681 15.1542 84.471 14.4942C84.351 14.1042 84.161 13.7042 83.811 13.5142C83.431 13.3042 82.951 13.3942 82.541 13.5342C82.131 13.6742 81.721 13.8742 81.281 13.8742C80.391 13.8742 82.021 11.9242 82.271 11.7142C83.081 11.0042 84.121 10.5642 85.191 10.4442C87.261 10.2042 90.981 11.0842 91.771 13.2842C92.001 13.9342 92.051 14.6342 92.051 15.3142C92.051 15.9742 92.011 16.6542 91.761 17.2742C91.411 18.1342 90.691 18.7842 89.991 19.4042C88.821 20.4442 87.221 20.9442 85.771 21.5342C84.151 22.1942 82.411 22.5742 80.671 22.7342C77.161 23.0542 73.601 22.5442 70.201 21.6942C67.981 21.1342 65.811 20.3642 63.661 19.4642C64.431 17.4342 64.601 15.0742 63.481 13.4642C60.401 9.01416 55.761 10.7642 53.621 14.3542C49.921 12.2242 46.311 9.97415 42.751 7.97415C33.921 2.98415 24.531 -1.29585 14.211 0.704155C7.881 1.92415 1.381 7.19416 0.160996 13.7642C-0.639004 18.0442 1.501 25.4242 7.511 23.4642C11.911 22.0242 13.961 16.6142 9.501 13.8342C6.801 12.1542 3.411 16.6642 5.731 18.6342C7.121 19.8142 8.791 19.5542 9.811 18.0342C9.891 18.7142 9.551 19.3742 9.181 19.9542C8.851 20.4642 8.441 20.9742 7.861 21.1442C4.301 22.2242 2.431 18.8542 2.201 15.8742C2.381 13.1142 4.311 10.6542 6.151 8.76416C9.151 5.67416 13.451 4.41415 17.591 3.97415C26.301 3.04415 34.831 7.67415 42.171 11.7342C45.561 13.6142 49.011 15.6842 52.521 17.6642C52.451 18.3942 52.491 19.1442 52.651 19.8942C52.871 20.9042 53.191 21.8242 53.571 22.6942C51.041 22.6942 48.431 21.8842 46.251 20.9542C37.081 17.0642 20.961 0.134154 12.061 13.4842C11.941 13.6642 12.061 14.2342 12.341 13.9942C25.861 2.57415 37.231 22.4042 49.881 25.6042C51.761 26.0742 53.661 26.1142 55.471 25.7742V25.7842ZM58.421 24.8342C59.671 24.2442 60.831 23.4542 61.841 22.4242C64.111 23.4142 66.411 24.2642 68.751 24.9042C65.071 26.4142 61.491 26.8442 58.431 24.8342H58.421ZM56.131 15.2942C59.631 12.8342 61.321 13.8642 61.221 18.3542C59.441 17.5142 57.691 16.6042 55.961 15.6442C56.021 15.5242 56.071 15.4142 56.131 15.3042V15.2942ZM54.891 19.0042C56.221 19.7242 57.561 20.4242 58.911 21.0842C58.561 21.3142 58.181 21.5342 57.781 21.7142C57.171 22.0442 56.531 22.2742 55.881 22.4342C55.041 21.3042 54.791 20.1442 54.891 19.0042Z" fill="url(#paint2_linear_42_495)"/>
<path d="M161.271 28.2542C157.791 32.9842 149.351 31.6442 144.281 31.5542C137.021 31.4242 129.761 31.1542 122.501 30.7542C115.981 30.3942 104.171 28.5742 100.591 35.5642C96.991 28.5542 85.071 30.3642 78.601 30.7542C72.011 31.1442 65.421 31.3642 58.821 31.5142C53.381 31.6442 43.661 33.3642 39.901 28.2442C39.491 27.6842 39.191 28.6642 39.411 29.0342C44.141 36.9042 57.221 34.5242 64.831 34.5042C71.431 34.4842 78.031 34.3242 84.621 33.9742C91.001 33.6342 96.411 33.9042 99.911 39.9142C100.171 40.3642 100.441 40.4642 100.681 40.3642C100.901 40.3842 101.121 40.2542 101.341 39.8842C104.901 33.8542 110.231 33.6442 116.661 33.9742C123.251 34.3142 129.841 34.4542 136.441 34.5042C144.071 34.5642 157.081 36.9042 161.801 29.0242C162.031 28.6442 161.681 27.7142 161.271 28.2642V28.2542Z" fill="url(#paint3_linear_42_495)"/>
<path d="M108.591 36.8744C106.301 37.4244 104.291 38.4544 103.121 40.5644C102.781 41.1744 103.351 42.7044 103.971 41.7844C105.371 39.7044 107.311 38.8944 109.701 38.4944C111.951 38.1244 114.401 38.7044 116.461 37.6444C116.641 37.5544 116.631 37.2044 116.451 37.1144C114.281 36.0644 110.911 36.3144 108.591 36.8744Z" fill="url(#paint4_linear_42_495)"/>
<path d="M190.631 24.2341C189.321 23.8041 188.161 22.9241 187.301 21.8641C186.461 20.8241 186.031 19.4341 185.931 18.1141C185.851 17.0841 186.171 16.0441 185.481 15.1641C185.311 14.9441 185.141 14.8741 184.881 14.9341C184.811 14.9541 184.741 14.9641 184.671 14.9841C184.411 15.0441 184.171 15.4441 184.111 15.6741C183.361 18.5241 184.151 21.6941 185.981 23.9841C186.821 25.0341 187.951 25.7541 189.171 26.2941C190.841 27.0341 191.801 26.3141 193.311 25.5741C193.331 25.5641 193.341 25.5041 193.311 25.4941C192.221 25.2641 191.651 24.5441 190.641 24.2141L190.631 24.2341Z" fill="url(#paint5_linear_42_495)"/>
<path d="M201.241 14.9343C199.871 7.59429 194.231 2.68429 187.221 0.754286C177.841 -1.82571 168.011 2.69429 159.971 7.04429C155.791 9.30429 151.691 11.7743 147.521 14.1043C145.491 10.0843 141.021 8.25429 137.581 13.1943C136.181 15.2043 136.741 17.5943 137.331 19.2843C135.761 19.9743 134.171 20.6143 132.541 21.1743C126.821 23.1643 120.501 23.4043 114.831 21.2043C112.751 20.4043 110.001 18.9843 109.331 16.8243C108.881 15.3943 109.521 13.1243 111.221 12.0143C112.901 10.9243 114.961 10.4443 116.941 10.6743C117.211 10.7043 117.481 10.7443 117.731 10.8343C118.751 11.1943 119.371 12.2143 119.861 13.1743C119.361 12.1943 116.961 13.1743 116.741 14.0243C116.411 15.3043 117.441 16.5743 118.591 16.9643C119.491 17.2643 120.471 17.1743 121.381 16.9143C121.951 16.7543 122.511 16.5143 122.921 16.0943C124.301 14.7043 122.951 11.8343 121.891 10.6343C120.541 9.11429 118.511 8.10429 116.481 7.97429C111.371 7.66429 106.411 10.0543 106.441 14.5743C106.481 20.2443 111.261 23.5443 115.881 25.1543C119.671 26.4743 123.491 26.7143 127.281 26.2343C130.871 27.6643 134.541 29.4143 138.381 29.4843C141.521 29.5443 144.101 27.8543 145.941 25.5443C147.841 25.9443 149.771 25.9743 151.391 25.5643C163.991 22.3843 175.381 2.53429 188.861 13.9843C189.141 14.2243 189.221 13.6243 189.111 13.4543C181.091 1.49429 165.891 14.4343 157.761 19.4443C154.831 21.2443 151.711 22.3743 148.271 22.6043C148.101 22.6143 147.921 22.6043 147.751 22.6043C147.891 22.3043 148.021 22.0043 148.141 21.7043C148.621 20.4643 148.751 19.1043 148.611 17.7643C151.711 15.9843 154.691 14.1843 157.501 12.6043C165.211 8.28429 173.001 4.14429 182.041 3.89429C186.451 3.77429 190.581 5.26429 194.071 7.86429C196.121 9.38429 197.491 11.4843 198.491 13.7943C199.721 16.5943 198.951 18.9743 196.181 20.9443C194.061 21.7443 192.851 21.2543 192.521 19.5043C193.171 19.8843 193.971 19.8943 194.741 19.2443C197.231 17.1243 195.151 11.6543 191.751 13.7643C187.751 16.2543 188.861 20.8743 192.511 23.0543C197.791 26.2043 202.071 19.4343 201.231 14.9143L201.241 14.9343ZM140.641 13.5143C142.171 11.6143 144.641 13.3243 145.401 15.2843C143.711 16.2043 142.011 17.0943 140.281 17.9243C140.161 16.8543 139.611 14.8643 140.641 13.5043V13.5143ZM133.491 25.3543C133.261 25.2643 133.031 25.1743 132.801 25.0743C135.091 24.3943 137.361 23.5143 139.591 22.5043C140.611 23.4143 141.861 24.1643 143.211 24.7243C140.471 26.4443 136.561 26.5043 133.501 25.3543H133.491ZM146.521 19.0543C146.421 20.3543 146.061 21.4543 145.531 22.3743C144.791 22.2043 144.051 21.9643 143.341 21.6943C142.981 21.5443 142.641 21.3743 142.341 21.1943C143.751 20.4843 145.151 19.7443 146.521 18.9743C146.521 19.0043 146.521 19.0243 146.521 19.0543Z" fill="url(#paint6_linear_42_495)"/>
<defs>
<linearGradient id="paint0_linear_42_495" x1="11.031" y1="39.2244" x2="185.041" y2="39.2244" gradientUnits="userSpaceOnUse">
<stop stop-color="#9B6E43"/>
<stop offset="0.43" stop-color="#F9C887"/>
<stop offset="0.65" stop-color="#FECC87"/>
<stop offset="0.99" stop-color="#986F42"/>
</linearGradient>
<linearGradient id="paint1_linear_42_495" x1="11.031" y1="20.7542" x2="185.041" y2="20.7542" gradientUnits="userSpaceOnUse">
<stop stop-color="#9B6E43"/>
<stop offset="0.43" stop-color="#F9C887"/>
<stop offset="0.65" stop-color="#FECC87"/>
<stop offset="0.99" stop-color="#986F42"/>
</linearGradient>
<linearGradient id="paint2_linear_42_495" x1="11.031" y1="14.8842" x2="185.041" y2="14.8842" gradientUnits="userSpaceOnUse">
<stop stop-color="#9B6E43"/>
<stop offset="0.43" stop-color="#F9C887"/>
<stop offset="0.65" stop-color="#FECC87"/>
<stop offset="0.99" stop-color="#986F42"/>
</linearGradient>
<linearGradient id="paint3_linear_42_495" x1="11.031" y1="34.2342" x2="185.041" y2="34.2342" gradientUnits="userSpaceOnUse">
<stop stop-color="#9B6E43"/>
<stop offset="0.43" stop-color="#F9C887"/>
<stop offset="0.65" stop-color="#FECC87"/>
<stop offset="0.99" stop-color="#986F42"/>
</linearGradient>
<linearGradient id="paint4_linear_42_495" x1="11.031" y1="39.2344" x2="185.041" y2="39.2344" gradientUnits="userSpaceOnUse">
<stop stop-color="#9B6E43"/>
<stop offset="0.43" stop-color="#F9C887"/>
<stop offset="0.65" stop-color="#FECC87"/>
<stop offset="0.99" stop-color="#986F42"/>
</linearGradient>
<linearGradient id="paint5_linear_42_495" x1="11.031" y1="20.7641" x2="185.041" y2="20.7641" gradientUnits="userSpaceOnUse">
<stop stop-color="#9B6E43"/>
<stop offset="0.43" stop-color="#F9C887"/>
<stop offset="0.65" stop-color="#FECC87"/>
<stop offset="0.99" stop-color="#986F42"/>
</linearGradient>
<linearGradient id="paint6_linear_42_495" x1="11.031" y1="14.7543" x2="185.041" y2="14.7543" gradientUnits="userSpaceOnUse">
<stop stop-color="#9B6E43"/>
<stop offset="0.43" stop-color="#F9C887"/>
<stop offset="0.65" stop-color="#FECC87"/>
<stop offset="0.99" stop-color="#986F42"/>
</linearGradient>
</defs>
</svg>
