<svg width="156" height="72" viewBox="0 0 156 72" fill="none" xmlns="http://www.w3.org/2000/svg">
<path d="M149.936 1.91812C145.826 -0.181881 139.466 -0.421888 136.326 3.70811C133.656 7.22811 133.576 11.4981 136.956 14.5481C140.416 17.6681 145.946 15.9881 147.156 11.7581C148.256 7.91811 144.736 4.81811 141.166 5.89811C139.166 6.49811 139.136 10.5881 141.046 11.2981C141.786 11.5681 143.866 11.3681 144.436 10.0581C144.626 13.4981 141.636 14.7481 138.936 13.8081C135.816 12.9681 134.936 5.17812 139.196 3.60812C142.396 2.04812 146.346 3.38811 149.136 5.14811C156.746 9.95811 152.826 19.0181 145.346 20.6081C134.526 22.9181 122.346 20.6081 111.376 20.6581C100.586 20.6981 90.5761 23.0481 80.4361 26.5381C79.5561 26.8381 78.7061 27.1681 77.8761 27.5281C77.4461 27.3381 77.0061 27.1481 76.5561 26.9781C66.8161 23.1681 56.6861 21.0881 46.2561 20.7081C34.7961 20.2881 23.3761 21.7681 11.9061 20.8181C4.03608 20.1681 -0.913918 12.2181 5.64608 6.01812C7.95608 3.83812 11.0361 3.04812 14.1161 2.97812C16.0261 3.19812 17.2761 3.83811 18.2861 5.50811C19.1561 6.94811 19.5361 8.67811 19.3361 10.3481C19.0361 12.8781 16.8361 14.0481 14.4661 14.3081C12.1461 14.5581 11.3761 12.8581 11.9461 10.7981C13.7461 11.9681 17.0161 10.9281 15.7461 7.06811C14.9061 4.49811 10.4361 5.45812 9.43608 7.35812C7.72608 10.5981 8.53608 13.7081 11.6561 15.5681C14.4761 17.2481 19.7061 15.2981 20.7961 12.2181C22.1161 8.47812 21.1561 5.27813 18.2661 2.62813C10.5161 -4.49187 0.246083 4.20812 0.00608278 12.6381C-0.363917 25.9281 16.2361 24.8381 25.0961 24.7081C25.8661 24.6981 26.6461 24.6781 27.4161 24.6581C31.7261 25.3781 35.9561 25.9881 40.0261 27.5681C37.6761 29.6381 36.0161 32.6881 35.5961 36.7481C35.1061 41.4181 37.5861 46.0081 41.7261 48.0781C46.8161 50.6281 50.9761 46.1981 51.8961 41.6581C52.9161 36.6281 49.3561 31.7081 45.9361 28.5181C45.5961 28.1981 45.2461 27.8981 44.8761 27.6181C45.2161 27.4381 45.5661 27.2581 45.9061 27.1081C52.1861 24.2281 58.8861 29.8481 62.5961 34.2481C65.7561 37.9981 75.1961 51.9781 75.7961 52.8181C76.1161 53.3281 76.4461 53.8281 76.7861 54.3281C76.6861 54.4981 76.5861 54.6781 76.4961 54.8581C74.5761 57.6281 72.8861 60.4981 72.3361 63.9681C71.8461 67.0781 73.5161 70.1381 76.4861 71.0681C77.3161 71.3281 78.0361 71.3381 78.6661 71.1781C81.3461 71.1781 82.8461 68.4481 83.4061 66.0681C84.2161 62.6281 82.2561 59.0481 80.1261 55.9581C79.8361 55.4281 79.5261 54.9181 79.2061 54.4081C80.2761 52.6981 81.3161 51.1881 82.0761 50.1181C83.2661 48.9281 90.7261 37.2081 94.1161 33.1881C98.0061 28.5781 103.866 25.2681 109.946 27.1281C110.296 27.2381 110.636 27.3681 110.966 27.5181C107.386 29.8981 104.706 33.2281 104.076 37.8181C103.616 41.1481 103.896 46.1081 107.536 47.7381C112.026 49.7381 116.016 47.9381 118.606 43.9881C122.106 38.6481 120.076 31.6481 115.636 27.5081C119.516 25.8381 123.936 25.3681 128.096 24.7181C134.396 25.0481 141.446 25.6181 147.256 23.8281C156.486 20.9881 159.436 6.80811 149.936 1.95811V1.91812ZM78.0561 56.2681C79.7261 59.1581 81.2561 62.1681 80.9561 65.2781C80.6561 67.3181 79.1461 69.3981 76.7861 68.2581C75.8561 67.8081 75.1161 66.9581 74.8061 65.9681C74.3261 64.4581 75.0261 62.6881 75.5661 61.2681C76.2361 59.5281 77.1161 57.8681 78.0561 56.2581V56.2681ZM74.1261 36.6181C74.1761 36.1381 74.2761 35.6581 74.4361 35.1981C75.1261 33.2081 76.3761 32.3581 77.8961 31.2881C79.2461 32.2281 80.3061 32.9181 81.1161 34.5981C81.4261 35.2381 81.6361 35.8781 81.7361 36.4881C81.5061 38.4781 80.5361 40.4781 77.6361 40.3681C75.2861 40.3181 74.4161 38.4181 74.1261 36.6181ZM71.6961 42.5181C71.5261 42.1481 71.3861 41.7781 71.2661 41.4281C71.0461 39.8681 71.1261 38.2181 71.6761 36.3881C71.9661 35.4081 72.5061 34.4181 73.2261 33.6881C72.5561 35.3181 72.2861 37.0981 72.4461 38.8481C72.5361 39.7681 73.4861 40.8781 74.1761 41.4381C75.0761 42.1581 76.2061 42.6981 77.3561 42.6481C82.4161 42.4181 83.4061 38.0781 83.4161 37.3481C83.4161 37.0981 83.3961 36.8581 83.3661 36.6081C83.2961 36.0181 83.1961 35.4181 82.9961 34.8581C82.8661 34.4881 82.5261 34.0881 82.5261 33.6981C83.4361 34.7381 84.1061 36.3081 84.5061 37.6281C84.6861 38.2281 84.7861 38.8081 84.8261 39.3881C84.5061 41.7381 83.3261 44.1781 82.1461 46.2981C81.9961 46.5181 81.8461 46.7381 81.6961 46.9581C80.4161 48.7781 79.1261 50.5781 77.9361 52.4281C76.9661 51.0181 75.9861 49.6881 75.1461 48.4781C74.7061 47.8481 74.2761 47.2181 73.8361 46.5781C73.0761 45.2681 72.3461 43.9381 71.7061 42.5381L71.6961 42.5181ZM48.0161 33.6881C51.9061 39.0181 48.7761 46.3381 42.2861 44.4581C37.9461 43.1981 37.5161 37.4881 38.7061 33.9981C39.4161 31.9181 41.0161 30.1881 42.8561 28.8581C44.9061 30.0681 46.6261 31.7781 48.0261 33.6881H48.0161ZM42.3461 25.9181C41.2661 25.3181 40.1261 24.8081 38.9361 24.3781C41.8661 24.3281 44.8061 24.2981 47.7361 24.3581C45.8261 24.5181 43.9861 25.0381 42.3461 25.9281V25.9181ZM61.3761 29.8581C58.5461 26.8281 54.9561 25.0481 51.3561 24.4981C52.4961 24.5781 53.6261 24.6781 54.7461 24.8081C54.8161 24.8881 54.8861 24.9481 54.9761 24.9881C60.9861 27.6381 68.0761 27.7281 74.4561 29.3581C71.1961 31.5281 69.0761 34.5681 69.5161 39.0381C69.5061 39.4581 69.5161 39.8781 69.5361 40.3081C67.0061 36.6581 64.3761 33.0781 61.3761 29.8681V29.8581ZM86.1161 40.2681C86.1161 40.2081 86.1161 40.1481 86.1161 40.0881C87.0461 35.0281 84.8361 31.6981 81.2661 29.3381C87.6361 27.3981 94.7261 27.6781 100.846 24.9681C100.936 24.9281 101.016 24.8581 101.076 24.7781C101.346 24.7481 101.606 24.7181 101.876 24.6881C102.016 24.6781 102.156 24.6681 102.286 24.6581C95.4861 26.8681 90.3761 33.8281 86.1161 40.2681ZM113.406 44.4681C109.216 46.5681 105.566 42.7781 105.876 38.4781C106.176 34.3381 109.636 31.0581 112.866 28.9281C112.946 28.8681 113.036 28.8281 113.126 28.7681C118.136 32.6881 120.086 41.1181 113.406 44.4681ZM109.806 24.2681C112.376 24.2281 114.956 24.2681 117.536 24.3281C116.206 24.7781 114.896 25.3081 113.656 25.9281C112.466 25.1681 111.176 24.5981 109.816 24.2781L109.806 24.2681Z" fill="url(#paint0_linear_42_494)"/>
<defs>
<linearGradient id="paint0_linear_42_494" x1="-11.7539" y1="35.6181" x2="162.256" y2="35.6181" gradientUnits="userSpaceOnUse">
<stop stop-color="#9B6E43"/>
<stop offset="0.43" stop-color="#F9C887"/>
<stop offset="0.65" stop-color="#FECC87"/>
<stop offset="0.99" stop-color="#986F42"/>
</linearGradient>
</defs>
</svg>
