<svg width="132" height="149" viewBox="0 0 132 149" fill="none" xmlns="http://www.w3.org/2000/svg">
<path d="M15.03 63.0442C14.13 61.8442 4.98002 62.0942 5.12002 77.7142C5.12002 77.7142 3.51002 66.4142 9.49002 61.6042C15.47 56.7942 18.85 61.9642 18.07 63.7242C17.29 65.4742 15.92 64.2542 15.02 63.0542L15.03 63.0442Z" fill="url(#paint0_linear_39_475)"/>
<path d="M13.04 96.2841C12.02 94.7141 10.96 93.1441 9.96004 91.4741C6.99004 86.7341 1.68004 76.7341 1.73004 65.9041C1.73004 65.1541 1.77005 64.4241 1.83005 63.7241C1.76005 64.1241 1.73004 64.3441 1.73004 64.3441C1.73004 64.3441 1.69004 63.5541 1.76004 62.1641C1.77004 61.9141 1.79004 61.6441 1.81004 61.3541C1.16004 57.0741 0.630042 49.0441 4.23004 42.8241C4.93004 40.3941 4.31004 37.8741 3.97004 36.3941C1.57004 37.9541 -0.35995 34.6741 0.52005 32.9841C1.40005 31.3041 4.73004 30.9041 6.13004 32.9841C7.43004 35.5241 7.28004 37.7441 6.67004 39.4741C7.25004 38.7841 7.81004 38.1141 8.37004 37.4741C11.48 32.9541 11.42 29.8141 10.92 27.6341C7.64004 29.7641 5.01004 25.2841 6.22004 22.9841C7.42004 20.6841 11.96 20.1441 13.88 22.9841C15.5 26.0641 15.13 28.8641 14.04 31.1641C16.84 27.9841 18.5 25.6041 17.92 23.3641C16.72 23.4141 14.58 22.6541 15.02 19.9141C15.46 17.1841 18.96 14.9341 21.86 17.4541C23.68 19.0441 23.65 22.3241 21.8 26.0341C22.19 25.4941 22.59 24.8741 23 24.1741C23.62 23.1341 24.21 21.9041 24.74 20.5241C25.27 19.1541 25.63 17.5941 25.82 15.9441C25.97 14.2941 25.88 12.5341 25.44 10.7841C25.25 9.90413 24.93 9.04414 24.58 8.18414C24.41 7.81414 24.18 7.29413 23.96 6.92413C23.74 6.54413 23.51 6.15413 23.23 5.78413C22.19 4.26413 20.71 3.07414 19 2.40414C15.57 1.02414 11.39 1.84413 8.67004 3.96413C7.32004 5.03413 6.39004 6.48413 6.31004 8.00413C6.19004 9.62413 6.43004 11.2041 7.35004 12.1341C7.56004 12.3641 7.81005 12.5341 8.07005 12.6841C7.60005 12.1741 7.31004 11.4941 7.31004 10.7541C7.31004 9.16413 8.60004 7.87412 10.19 7.87412C11.78 7.87412 13.07 9.16413 13.07 10.7541C13.07 11.5741 12.72 12.3141 12.17 12.8341C11.86 13.1841 11.4 13.4541 10.94 13.6241C10.32 13.8541 9.60004 13.9641 8.84004 13.8741C8.09004 13.7841 7.28005 13.4741 6.64005 12.8841C5.99005 12.3041 5.54004 11.4941 5.29004 10.6341C5.05004 9.78413 4.97004 8.83413 4.99004 7.96413C5.00004 7.00413 5.26005 5.98412 5.75005 5.09412C6.24005 4.20412 6.92004 3.42414 7.69004 2.76414C9.25004 1.44414 11.21 0.56413 13.29 0.194129C15.37 -0.165871 17.62 -0.0558742 19.65 0.784126C21.68 1.60413 23.44 3.06413 24.61 4.82413C24.91 5.25413 25.17 5.72412 25.42 6.20412C25.67 6.69412 25.82 7.06413 26.04 7.58413C26.39 8.53413 26.71 9.48412 26.9 10.4541C27.32 12.3841 27.3 14.3241 27.06 16.0941C26.79 17.8641 26.26 19.4841 25.62 20.8841C24.99 22.2941 24.24 23.4941 23.52 24.4941C22.91 25.3441 22.32 26.0641 21.79 26.6541C22.23 26.3241 22.68 25.9841 23.17 25.6041C23.91 25.0441 24.68 24.4041 25.49 23.7241C26.3 23.0441 27.13 22.3041 27.96 21.5141C29.62 19.9341 31.26 18.1241 32.6 16.1441C33.92 14.1541 34.91 11.9741 35.18 9.81413C35.33 8.73413 35.28 7.72414 35.06 6.76414C34.86 5.81414 34.44 5.01413 33.88 4.44413C33.31 3.87413 32.58 3.58412 31.9 3.48412C31.21 3.39412 30.58 3.48413 30.09 3.64413C29.6 3.80413 29.25 4.04413 29.05 4.24413C28.85 4.44413 28.79 4.59412 28.79 4.59412C28.79 4.59412 28.82 4.43413 28.97 4.17413C29.13 3.91413 29.43 3.56413 29.94 3.28413C30.44 2.99413 31.12 2.75412 31.95 2.73412C32.77 2.70412 33.76 2.94413 34.62 3.60413C35.48 4.24413 36.11 5.28413 36.45 6.39413C36.81 7.49413 36.92 8.77413 36.81 10.0041C36.72 11.2541 36.35 12.5041 35.88 13.7041C35.4 14.9041 34.78 16.0641 34.04 17.1241C32.58 19.2541 30.77 21.0941 28.97 22.6341C27.16 24.1741 25.34 25.4241 23.73 26.4041C23.63 26.4641 23.53 26.5241 23.43 26.5841C29.26 24.3841 37.24 24.7741 42.36 31.6841C50.89 43.2041 43.09 51.0741 38.2 52.1741C33.32 53.2641 28.21 47.6541 31.27 42.9141C34.33 38.1741 39 40.0741 38.78 42.9141C38.56 45.7541 35.35 45.3941 35.35 45.3941C34.18 49.1141 38.43 48.5141 40.51 47.9041C39.96 47.2441 39.74 44.4541 40.18 43.2041C40.4 44.2941 42.91 44.1341 43.24 42.2241C43.57 40.3041 43.17 32.8641 36.4 28.7741C30.67 25.3041 22.87 27.3341 18.26 31.1141C17.93 31.4841 17.57 31.8541 17.2 32.2241C16.83 32.5841 16.47 32.9441 16.1 33.3141C10.52 38.7541 4.73004 43.8741 3.09004 50.6841C2.45004 53.3441 2.08004 56.6641 2.01004 59.4141C2.12004 58.5041 2.27004 57.5041 2.51004 56.4241C2.63004 55.8341 2.76004 55.2241 2.93004 54.6041C3.08004 53.9741 3.27005 53.3341 3.50005 52.6741C3.70005 52.0141 3.93004 51.3441 4.21004 50.6741C4.34004 50.3341 4.48004 49.9941 4.62004 49.6441C4.78004 49.3041 4.95005 48.9741 5.11005 48.6341C5.28005 48.2941 5.44004 47.9441 5.62004 47.6041C5.82004 47.2641 6.01004 46.9341 6.21004 46.5941C6.58004 45.9041 7.04004 45.2541 7.52004 44.6041C8.47004 43.3041 9.60004 42.0941 10.85 41.0241C11.02 40.8841 11.13 40.7641 11.34 40.6041L11.82 40.2541L12.78 39.5641C13.44 39.1141 14.17 38.6841 14.87 38.2841C16.3 37.5341 17.8 36.9241 19.33 36.6041C20.86 36.2841 22.43 36.2441 23.86 36.5641C25.29 36.8741 26.59 37.5941 27.42 38.6341C27.85 39.1341 28.12 39.7541 28.25 40.3441C28.26 40.5041 28.27 40.6541 28.28 40.8041C28.28 40.8941 28.29 40.9241 28.29 41.0541L28.26 41.2441C28.24 41.4741 28.15 41.8041 28.05 42.0541C27.62 43.1041 26.6 43.5541 25.87 43.5241C25.09 43.5241 24.62 43.0541 24.42 42.7541C24.21 42.4341 24.19 42.2241 24.18 42.2341C24.19 42.2341 24.25 42.4341 24.5 42.6941C24.73 42.9541 25.22 43.2641 25.86 43.1741C26.48 43.1141 27.21 42.6341 27.43 41.8241C27.67 41.0041 27.42 40.0241 26.66 39.2841C25.93 38.5341 24.83 38.0341 23.6 37.8441C22.37 37.6541 21.02 37.7841 19.67 38.1041C18.31 38.4341 16.99 39.0741 15.67 39.7641C15.04 40.1541 14.42 40.5141 13.78 40.9541L12.83 41.6641L12.36 42.0141C12.26 42.0941 12.09 42.2541 11.96 42.3741C10.81 43.3341 9.75005 44.4341 8.86005 45.6341C8.41005 46.2341 7.95004 46.8241 7.58004 47.4541C7.38004 47.7641 7.19004 48.0741 6.99004 48.3841C6.81004 48.7041 6.64004 49.0241 6.47004 49.3441C6.30004 49.6641 6.13004 49.9741 5.97004 50.2941C5.82004 50.6141 5.67004 50.9341 5.53004 51.2541C5.22004 51.8841 4.95004 52.5041 4.72004 53.1341C4.46004 53.7441 4.25004 54.3641 4.05004 54.9541C3.90004 55.3741 3.78004 55.7641 3.65004 56.1641C7.07004 48.4541 14.32 45.4141 19.46 45.1941C26.37 44.9041 33.5 52.1241 33.48 59.3341C33.45 66.5541 28.5 69.3241 24.43 68.5941C21.64 68.0941 19.97 64.7641 20.4 61.9641C20.84 59.1541 24.81 58.6441 26.12 60.1041C27.43 61.5641 26.56 63.7841 24.33 63.4941C24.33 65.6841 30.11 65.0441 30.38 60.7241C30.65 56.4041 25.21 49.8441 17.6 50.5541C9.98004 51.2641 2.97005 60.5741 3.11005 69.7641C3.20005 75.7441 5.77004 82.2041 7.79004 86.3041C6.00004 79.7741 7.08004 72.3241 12.37 70.2841C16.38 68.9041 20.35 72.0341 19.46 75.3841C18.57 78.7341 14.42 77.9341 13.76 76.1141C13.1 74.2941 14.27 72.7541 15.37 73.0541C13.25 72.3241 8.01004 73.9341 9.46004 80.3441C10.59 85.3241 14.83 88.5641 18.08 93.6441C16.68 94.8041 15.33 95.9641 14.06 97.2241C14.3 97.5341 14.46 97.8441 14.5 98.1341C14.9 100.904 12.25 100.464 10.2 99.6741C8.15004 98.8841 -2.98996 106.334 9.37004 125.564C9.37004 125.564 -1.02995 112.834 1.47005 102.064C3.46005 93.5041 10.06 94.2341 13.04 96.2841Z" fill="url(#paint1_linear_39_475)"/>
<path d="M15.45 145.194C21.21 144.464 20.85 137.534 19.02 137.974C17.2 138.414 14.72 137.754 14.94 135.934C15.48 132.944 20.69 132.014 23.54 134.374C25.35 134.284 33.17 134.324 34.43 141.154C34.65 144.054 31.34 146.074 29.33 145.174C27.32 144.274 26.72 139.914 30.02 139.614C29.24 137.984 27.74 135.984 23.79 134.614C24.29 135.094 24.72 135.664 25 136.384C26.82 141.054 21.57 150.534 11.37 147.904C1.15999 145.284 5.38999 136.384 5.38999 136.384C4.05999 144.224 9.68999 145.934 15.45 145.204V145.194Z" fill="url(#paint2_linear_39_475)"/>
<path d="M67.51 129.584C69.26 128.804 74.44 132.184 69.63 138.164C64.82 144.144 53.51 142.544 53.51 142.544C69.13 142.694 69.39 133.534 68.18 132.634C66.98 131.734 65.76 130.364 67.51 129.584Z" fill="url(#paint3_linear_39_475)"/>
<path d="M0 136.184C0.01 135.984 0.0199988 135.784 0.0299988 135.584V135.434L0.0699921 135.244L0.119995 134.954C0.189995 134.564 0.219995 134.194 0.369995 133.734C0.489995 133.284 0.639991 132.834 0.849991 132.434C0.949991 132.224 1.04999 132.014 1.14999 131.804L1.52 131.204C2.51 129.584 3.98999 128.224 5.62999 127.144C7.26999 126.044 9.03999 125.124 10.82 124.284C12.59 123.434 14.38 122.574 16.18 121.704C17.96 120.874 19.68 120.004 21.12 118.934C22.51 117.824 23.68 116.574 24.02 115.044L24.16 114.474L24.2 113.884C24.26 113.504 24.2 113.104 24.18 112.704L24.16 112.404V112.364V112.344C24.16 112.374 24.14 112.264 24.17 112.394L24.15 112.314L24.12 112.154C24.08 111.944 24.03 111.684 23.98 111.604C23.91 111.384 23.74 111.054 23.54 110.824C22.73 109.824 21.23 109.374 20 109.534C19.38 109.614 18.83 109.854 18.41 110.204L18.13 110.454C18.04 110.584 17.92 110.724 17.85 110.834C17.72 111.034 17.6 111.284 17.52 111.534C17.18 112.554 17.37 113.584 17.84 114.214C18.31 114.854 18.96 115.134 19.41 115.194C19.63 115.254 19.81 115.234 19.94 115.254C20.06 115.254 20.12 115.264 20.12 115.264C20.12 115.264 20.06 115.264 19.94 115.284C19.82 115.284 19.64 115.354 19.4 115.334C18.94 115.344 18.14 115.244 17.44 114.554C16.76 113.884 16.28 112.654 16.55 111.294C16.61 110.954 16.71 110.614 16.89 110.244C16.97 110.064 17.05 109.944 17.13 109.794C17.27 109.584 17.38 109.464 17.52 109.294C18.08 108.684 18.86 108.264 19.71 108.054C21.38 107.654 23.47 107.944 25 109.504C25.2 109.684 25.36 109.914 25.51 110.144C25.67 110.354 25.81 110.644 25.93 110.924C26.08 111.244 26.11 111.424 26.18 111.644L26.23 111.804L26.25 111.884L26.27 112.004V112.054L26.33 112.424C26.4 112.924 26.49 113.424 26.45 113.964L26.42 114.764L26.27 115.564C26.2 116.114 25.95 116.614 25.77 117.144C25.51 117.624 25.28 118.154 24.94 118.584C24.32 119.524 23.5 120.244 22.68 120.934C20.99 122.234 19.13 123.204 17.31 124.074C15.5 124.914 13.68 125.754 11.9 126.574C10.12 127.394 8.38999 128.144 6.88999 129.074C5.37999 129.994 4.05 131.034 3.14 132.284L2.8 132.754L2.52 133.244C2.32 133.574 2.2 133.894 2.06 134.214C1.9 134.504 1.80999 134.924 1.70999 135.294L1.62999 135.574C1.62999 135.574 1.59 135.714 1.61 135.664L1.59 135.794C1.56 135.974 1.52999 136.144 1.50999 136.324C1.29999 137.714 1.34 139.034 1.56 140.174C1.78 141.314 2.16 142.284 2.55 143.034C2.71 143.334 2.86 143.584 3 143.824C0.56 139.274 3.33999 132.844 7.34999 129.744C10.64 127.194 16.11 125.694 21.75 125.534C23.95 125.244 27.53 125.104 32.17 126.024C37.58 127.114 40.32 122.474 39.01 119.294C37.7 116.124 32.78 115.034 29.66 115.744C33.65 113.834 38.9 113.224 42.62 116.564C44.51 118.264 45.65 121.504 44.43 124.294C45.65 122.874 47.09 120.904 48.19 118.344C48.83 116.824 49.33 115.094 49.44 113.224C49.52 112.294 49.44 111.344 49.34 110.374C49.17 109.414 48.97 108.444 48.58 107.504C47.88 105.634 46.83 103.694 45.41 102.214C43.97 100.734 42.08 99.6342 40.04 99.0342C38 98.4342 35.81 98.2743 33.75 98.5843C31.69 98.9043 29.74 99.7342 28.37 101.064C26.98 102.384 26.36 104.234 26.39 106.024C26.39 106.454 26.44 106.914 26.49 107.324C27.08 105.974 28.42 105.034 29.98 105.034C32.09 105.034 33.79 106.744 33.79 108.844C33.79 110.944 32.09 112.654 29.98 112.654C29.14 112.654 28.37 112.374 27.74 111.914C27.53 111.794 27.33 111.654 27.14 111.484C26.39 110.844 25.89 109.964 25.56 109.034C25.39 108.564 25.27 108.054 25.17 107.614C25.07 107.094 25 106.604 24.98 106.074C24.82 103.994 25.57 101.614 27.23 99.9342C28.87 98.2342 31.16 97.2842 33.48 96.9042C35.81 96.5242 38.25 96.6843 40.54 97.3943C42.82 98.0943 44.99 99.3342 46.6 101.104C47.44 101.964 48.03 103.004 48.61 103.964C49.14 104.964 49.64 105.984 49.97 107.044C50.34 108.094 50.53 109.174 50.67 110.234C50.75 111.304 50.79 112.354 50.66 113.354C50.45 115.374 49.79 117.194 49.03 118.754C48.25 120.314 47.32 121.604 46.44 122.684C45.55 123.764 44.7 124.624 43.97 125.294C43.88 125.374 43.8 125.444 43.72 125.514C43.34 126.014 42.87 126.484 42.28 126.924C46.51 125.054 50.67 121.324 52.58 114.004C53.03 112.284 53.19 111.444 53.3 109.854C53.32 109.614 53.3 109.034 53.3 109.034C52.76 97.9442 44.02 91.8742 35.59 90.7742C23.41 89.1142 17.45 95.8943 15.45 98.8943C13.88 101.244 14.68 103.174 15.55 103.834C15.76 103.994 16.03 104.104 16.14 103.984C16.8 103.214 18.17 102.954 19.05 103.424C19.45 103.634 20.33 104.324 19.83 106.134C19.44 107.564 17.51 108.244 15.36 107.704C12.71 107.044 10.43 104.614 11.31 100.674C12.94 93.3743 21.59 87.8643 31.43 87.8643C37.49 87.8643 45.75 90.6342 50.52 96.8142C54.16 101.524 55.16 107.544 53.43 114.224C50.61 125.064 42.85 128.354 37.04 129.234C42.46 132.514 45.74 137.044 50.9 138.214C57.32 139.674 58.92 134.424 58.19 132.304C58.48 133.394 56.95 134.564 55.13 133.904C53.31 133.244 52.51 129.094 55.86 128.204C59.21 127.314 62.35 131.274 60.96 135.294C58.91 140.584 51.47 141.664 44.94 139.874C49.03 141.894 55.5 144.454 61.48 144.554C70.67 144.704 79.98 137.684 80.69 130.064C81.4 122.454 74.84 117.004 70.52 117.284C66.2 117.554 65.56 123.334 67.75 123.334C67.46 121.114 69.68 120.234 71.14 121.544C72.6 122.854 72.09 126.834 69.28 127.264C66.47 127.704 63.14 126.024 62.64 123.234C61.91 119.164 64.68 114.214 71.9 114.184C79.12 114.154 86.34 121.284 86.05 128.204C85.83 133.354 82.78 140.634 75.01 144.044C75.43 143.914 75.85 143.774 76.29 143.614C76.89 143.414 77.5 143.194 78.11 142.934C78.73 142.704 79.36 142.434 79.99 142.124C80.31 141.974 80.63 141.834 80.95 141.684C81.26 141.514 81.58 141.344 81.9 141.184C82.22 141.014 82.54 140.854 82.86 140.664C83.17 140.474 83.48 140.274 83.79 140.074C84.43 139.694 85.01 139.244 85.61 138.794C86.81 137.904 87.9 136.844 88.86 135.684C88.97 135.554 89.14 135.384 89.22 135.284L89.57 134.814L90.27 133.864C90.72 133.234 91.07 132.614 91.47 131.974C92.15 130.654 92.8 129.334 93.13 127.974C93.45 126.624 93.58 125.274 93.38 124.044C93.19 122.824 92.68 121.714 91.94 120.984C91.2 120.234 90.22 119.974 89.4 120.214C88.59 120.434 88.11 121.164 88.05 121.784C87.96 122.424 88.27 122.904 88.53 123.144C88.8 123.394 89 123.444 88.99 123.464C88.99 123.444 88.79 123.424 88.47 123.224C88.17 123.034 87.69 122.554 87.7 121.774C87.66 121.044 88.12 120.024 89.17 119.594C89.42 119.494 89.75 119.404 89.98 119.384L90.17 119.354C90.3 119.354 90.34 119.354 90.42 119.364C90.57 119.374 90.72 119.384 90.88 119.394C91.48 119.524 92.09 119.794 92.59 120.224C93.63 121.054 94.34 122.354 94.66 123.784C94.98 125.214 94.94 126.784 94.62 128.314C94.3 129.854 93.69 131.344 92.94 132.774C92.53 133.474 92.1 134.204 91.65 134.864L90.96 135.824L90.61 136.304C90.45 136.514 90.33 136.634 90.19 136.794C89.11 138.044 87.91 139.184 86.61 140.124C85.96 140.604 85.32 141.064 84.62 141.444C84.28 141.644 83.95 141.834 83.61 142.034C83.27 142.214 82.92 142.374 82.58 142.544C82.24 142.714 81.9 142.874 81.57 143.034C81.23 143.174 80.88 143.304 80.54 143.444C79.87 143.724 79.2 143.954 78.54 144.154C77.88 144.374 77.24 144.564 76.61 144.724C75.99 144.894 75.38 145.024 74.79 145.144C73.71 145.384 72.71 145.534 71.8 145.644C74.55 145.574 77.87 145.204 80.53 144.564C87.34 142.924 92.46 137.134 97.9 131.554C98.26 131.184 98.62 130.814 98.98 130.454C99.35 130.084 99.72 129.734 100.09 129.394C103.87 124.794 105.89 116.994 102.43 111.264C98.34 104.494 90.89 104.104 88.98 104.424C87.07 104.754 86.9 107.264 88 107.484C86.74 107.924 83.95 107.704 83.3 107.154C82.7 109.234 82.1 113.484 85.82 112.314C85.82 112.314 85.45 109.104 88.3 108.884C91.14 108.664 93.04 113.334 88.3 116.394C83.56 119.454 77.95 114.354 79.04 109.464C80.13 104.574 88.01 96.7742 99.53 105.304C106.44 110.424 106.84 118.404 104.63 124.234C104.69 124.134 104.75 124.034 104.81 123.934C105.79 122.324 107.04 120.504 108.58 118.684C110.12 116.874 111.95 115.074 114.09 113.614C115.15 112.874 116.31 112.254 117.51 111.774C118.71 111.304 119.96 110.934 121.21 110.844C122.44 110.734 123.72 110.844 124.82 111.204C125.93 111.554 126.96 112.174 127.61 113.044C128.26 113.904 128.51 114.894 128.47 115.714C128.45 116.544 128.21 117.234 127.92 117.724C127.64 118.224 127.28 118.534 127.03 118.694C126.77 118.844 126.61 118.874 126.61 118.874C126.61 118.874 126.76 118.804 126.96 118.614C127.16 118.414 127.4 118.064 127.56 117.574C127.72 117.084 127.81 116.454 127.72 115.764C127.62 115.084 127.33 114.344 126.76 113.784C126.19 113.214 125.39 112.794 124.44 112.604C123.48 112.384 122.47 112.334 121.39 112.484C119.23 112.754 117.05 113.744 115.06 115.064C113.08 116.404 111.27 118.044 109.7 119.704C108.91 120.534 108.16 121.354 107.49 122.164C106.81 122.974 106.17 123.744 105.61 124.484C105.23 124.974 104.89 125.434 104.56 125.864C105.16 125.334 105.87 124.744 106.72 124.134C107.73 123.414 108.92 122.654 110.34 122.024C111.74 121.384 113.36 120.854 115.13 120.584C116.9 120.344 118.84 120.324 120.77 120.744C121.74 120.924 122.69 121.244 123.64 121.604C124.16 121.824 124.54 121.974 125.02 122.224C125.5 122.474 125.97 122.734 126.4 123.034C128.16 124.214 129.63 125.964 130.44 127.994C131.28 130.024 131.39 132.274 131.03 134.354C130.67 136.444 129.79 138.394 128.47 139.964C127.81 140.744 127.03 141.424 126.14 141.904C125.25 142.384 124.23 142.654 123.27 142.664C122.39 142.684 121.44 142.604 120.6 142.364C119.74 142.114 118.93 141.664 118.35 141.014C117.76 140.374 117.45 139.564 117.36 138.814C117.27 138.054 117.38 137.334 117.61 136.714C117.77 136.254 118.05 135.794 118.4 135.484C118.92 134.934 119.66 134.584 120.49 134.584C122.08 134.584 123.37 135.874 123.37 137.464C123.37 139.054 122.08 140.344 120.49 140.344C119.74 140.344 119.07 140.054 118.55 139.584C118.69 139.844 118.87 140.094 119.1 140.304C120.03 141.214 121.61 141.464 123.23 141.344C124.75 141.264 126.2 140.334 127.27 138.984C129.39 136.264 130.21 132.084 128.84 128.654C128.17 126.944 126.97 125.464 125.46 124.424C125.09 124.144 124.7 123.914 124.32 123.694C123.95 123.484 123.42 123.244 123.06 123.074C122.2 122.724 121.34 122.404 120.46 122.214C118.71 121.774 116.95 121.694 115.3 121.834C113.65 122.014 112.09 122.374 110.72 122.914C109.35 123.444 108.11 124.034 107.07 124.654C106.37 125.064 105.75 125.474 105.21 125.854C108.92 124.004 112.2 123.974 113.79 125.794C116.31 128.694 114.07 132.194 111.33 132.634C108.59 133.074 107.83 130.944 107.88 129.734C105.63 129.154 103.26 130.814 100.08 133.614C102.39 132.524 105.19 132.154 108.27 133.774C111.11 135.684 110.57 140.224 108.27 141.434C105.97 142.634 101.49 140.014 103.62 136.734C101.43 136.244 98.29 136.184 93.78 139.284C93.14 139.834 92.48 140.404 91.78 140.974C93.52 140.364 95.74 140.224 98.27 141.514C100.35 142.914 99.95 146.244 98.27 147.124C96.59 148.004 93.3 146.084 94.87 143.684C93.38 143.354 90.87 142.724 88.44 143.424C82.22 147.014 74.19 146.484 69.91 145.844C69.63 145.864 69.35 145.884 69.1 145.894C67.71 145.964 66.92 145.924 66.92 145.924C66.92 145.924 67.14 145.894 67.54 145.824C66.83 145.884 66.11 145.914 65.35 145.924C54.52 145.974 44.52 140.664 39.79 137.694C32.72 133.464 27.57 128.094 15.52 129.624C-0.140011 131.624 3.12999 143.174 3.62999 144.684C3.92999 145.064 4.12999 145.254 4.12999 145.254C4.12999 145.254 3.91999 145.124 3.54999 144.814C3.18999 144.504 2.66999 144.034 2.12999 143.314C1.58999 142.594 1.01 141.644 0.610001 140.434C0.200001 139.224 -0.0500012 137.774 0.0299988 136.184H0Z" fill="url(#paint4_linear_39_475)"/>
<path d="M10.62 142.254C8.60999 142.254 6.97999 140.624 6.97999 138.604C6.97999 136.584 8.60999 134.954 10.62 134.954C12.63 134.954 14.27 136.584 14.27 138.604C14.27 140.624 12.64 142.254 10.62 142.254Z" fill="url(#paint5_linear_39_475)"/>
<defs>
<linearGradient id="paint0_linear_39_475" x1="18.19" y1="68.6642" x2="4.93002" y2="68.6642" gradientUnits="userSpaceOnUse">
<stop stop-color="#D69A2D"/>
<stop offset="0.18" stop-color="#DDAB44"/>
<stop offset="1" stop-color="#FFF8AF"/>
</linearGradient>
<linearGradient id="paint1_linear_39_475" x1="46.16" y1="62.7941" x2="0.310046" y2="62.7941" gradientUnits="userSpaceOnUse">
<stop stop-color="#FFF8AF"/>
<stop offset="0.82" stop-color="#DDAB44"/>
<stop offset="1" stop-color="#D69A2D"/>
</linearGradient>
<linearGradient id="paint2_linear_39_475" x1="34.44" y1="140.694" x2="4.51999" y2="140.694" gradientUnits="userSpaceOnUse">
<stop stop-color="#FFF8AF"/>
<stop offset="0.82" stop-color="#DDAB44"/>
<stop offset="1" stop-color="#D69A2D"/>
</linearGradient>
<linearGradient id="paint3_linear_39_475" x1="71.62" y1="136.104" x2="53.51" y2="136.104" gradientUnits="userSpaceOnUse">
<stop stop-color="#FFF8AF"/>
<stop offset="0.82" stop-color="#DDAB44"/>
<stop offset="1" stop-color="#D69A2D"/>
</linearGradient>
<linearGradient id="paint4_linear_39_475" x1="131.2" y1="117.594" x2="-0.0100042" y2="117.594" gradientUnits="userSpaceOnUse">
<stop stop-color="#FFF8AF"/>
<stop offset="0.82" stop-color="#DDAB44"/>
<stop offset="1" stop-color="#D69A2D"/>
</linearGradient>
<linearGradient id="paint5_linear_39_475" x1="14.27" y1="138.604" x2="6.97999" y2="138.604" gradientUnits="userSpaceOnUse">
<stop stop-color="#FFF8AF"/>
<stop offset="0.82" stop-color="#DDAB44"/>
<stop offset="1" stop-color="#D69A2D"/>
</linearGradient>
</defs>
</svg>
