<svg width="132" height="149" viewBox="0 0 132 149" fill="none" xmlns="http://www.w3.org/2000/svg">
<path d="M116.194 63.0442C117.094 61.8442 126.244 62.0942 126.104 77.7142C126.104 77.7142 127.714 66.4142 121.734 61.6042C115.754 56.7942 112.374 61.9642 113.154 63.7242C113.934 65.4742 115.304 64.2542 116.204 63.0542L116.194 63.0442Z" fill="url(#paint0_linear_39_475)"/>
<path d="M118.184 96.2841C119.204 94.7141 120.264 93.1441 121.264 91.4741C124.234 86.7341 129.544 76.7341 129.494 65.9041C129.494 65.1541 129.454 64.4241 129.394 63.7241C129.464 64.1241 129.494 64.3441 129.494 64.3441C129.494 64.3441 129.534 63.5541 129.464 62.1641C129.454 61.9141 129.434 61.6441 129.414 61.3541C130.064 57.0741 130.594 49.0441 126.994 42.8241C126.294 40.3941 126.914 37.8741 127.254 36.3941C129.654 37.9541 131.584 34.6741 130.704 32.9841C129.824 31.3041 126.494 30.9041 125.094 32.9841C123.794 35.5241 123.944 37.7441 124.554 39.4741C123.974 38.7841 123.414 38.1141 122.854 37.4741C119.744 32.9541 119.804 29.8141 120.304 27.6341C123.584 29.7641 126.214 25.2841 125.004 22.9841C123.804 20.6841 119.264 20.1441 117.344 22.9841C115.724 26.0641 116.094 28.8641 117.184 31.1641C114.384 27.9841 112.724 25.6041 113.304 23.3641C114.504 23.4141 116.644 22.6541 116.204 19.9141C115.764 17.1841 112.264 14.9341 109.364 17.4541C107.544 19.0441 107.574 22.3241 109.424 26.0341C109.034 25.4941 108.634 24.8741 108.224 24.1741C107.604 23.1341 107.014 21.9041 106.484 20.5241C105.954 19.1541 105.594 17.5941 105.404 15.9441C105.254 14.2941 105.344 12.5341 105.784 10.7841C105.974 9.90413 106.294 9.04414 106.644 8.18414C106.814 7.81414 107.044 7.29413 107.264 6.92413C107.484 6.54413 107.714 6.15413 107.994 5.78413C109.034 4.26413 110.514 3.07414 112.224 2.40414C115.654 1.02414 119.834 1.84413 122.554 3.96413C123.904 5.03413 124.834 6.48413 124.914 8.00413C125.034 9.62413 124.794 11.2041 123.874 12.1341C123.664 12.3641 123.414 12.5341 123.154 12.6841C123.624 12.1741 123.914 11.4941 123.914 10.7541C123.914 9.16413 122.624 7.87412 121.034 7.87412C119.444 7.87412 118.154 9.16413 118.154 10.7541C118.154 11.5741 118.504 12.3141 119.054 12.8341C119.364 13.1841 119.824 13.4541 120.284 13.6241C120.904 13.8541 121.624 13.9641 122.384 13.8741C123.134 13.7841 123.944 13.4741 124.584 12.8841C125.234 12.3041 125.684 11.4941 125.934 10.6341C126.174 9.78413 126.254 8.83413 126.234 7.96413C126.224 7.00413 125.964 5.98412 125.474 5.09412C124.984 4.20412 124.304 3.42414 123.534 2.76414C121.974 1.44414 120.014 0.56413 117.934 0.194129C115.854 -0.165871 113.604 -0.0558742 111.574 0.784126C109.544 1.60413 107.784 3.06413 106.614 4.82413C106.314 5.25413 106.054 5.72412 105.804 6.20412C105.554 6.69412 105.404 7.06413 105.184 7.58413C104.834 8.53413 104.514 9.48412 104.324 10.4541C103.904 12.3841 103.924 14.3241 104.164 16.0941C104.434 17.8641 104.964 19.4841 105.604 20.8841C106.234 22.2941 106.984 23.4941 107.704 24.4941C108.314 25.3441 108.904 26.0641 109.434 26.6541C108.994 26.3241 108.544 25.9841 108.054 25.6041C107.314 25.0441 106.544 24.4041 105.734 23.7241C104.924 23.0441 104.094 22.3041 103.264 21.5141C101.604 19.9341 99.9641 18.1241 98.6241 16.1441C97.3041 14.1541 96.3141 11.9741 96.0441 9.81413C95.8941 8.73413 95.9441 7.72414 96.1641 6.76414C96.3641 5.81414 96.7841 5.01413 97.3441 4.44413C97.9141 3.87413 98.6441 3.58412 99.3241 3.48412C100.014 3.39412 100.644 3.48413 101.134 3.64413C101.624 3.80413 101.974 4.04413 102.174 4.24413C102.374 4.44413 102.434 4.59412 102.434 4.59412C102.434 4.59412 102.404 4.43413 102.254 4.17413C102.094 3.91413 101.794 3.56413 101.284 3.28413C100.784 2.99413 100.104 2.75412 99.2741 2.73412C98.4541 2.70412 97.4641 2.94413 96.6041 3.60413C95.7441 4.24413 95.1141 5.28413 94.7741 6.39413C94.4141 7.49413 94.3041 8.77413 94.4141 10.0041C94.5041 11.2541 94.8741 12.5041 95.3441 13.7041C95.8241 14.9041 96.4441 16.0641 97.1841 17.1241C98.6441 19.2541 100.454 21.0941 102.254 22.6341C104.064 24.1741 105.884 25.4241 107.494 26.4041C107.594 26.4641 107.694 26.5241 107.794 26.5841C101.964 24.3841 93.9841 24.7741 88.8641 31.6841C80.3341 43.2041 88.1341 51.0741 93.0241 52.1741C97.9041 53.2641 103.014 47.6541 99.9541 42.9141C96.8941 38.1741 92.2241 40.0741 92.4441 42.9141C92.6641 45.7541 95.8741 45.3941 95.8741 45.3941C97.0441 49.1141 92.7941 48.5141 90.7141 47.9041C91.2641 47.2441 91.4841 44.4541 91.0441 43.2041C90.8241 44.2941 88.3141 44.1341 87.9841 42.2241C87.6541 40.3041 88.0541 32.8641 94.8241 28.7741C100.554 25.3041 108.354 27.3341 112.964 31.1141C113.294 31.4841 113.654 31.8541 114.024 32.2241C114.394 32.5841 114.754 32.9441 115.124 33.3141C120.704 38.7541 126.494 43.8741 128.134 50.6841C128.774 53.3441 129.144 56.6641 129.214 59.4141C129.104 58.5041 128.954 57.5041 128.714 56.4241C128.594 55.8341 128.464 55.2241 128.294 54.6041C128.144 53.9741 127.954 53.3341 127.724 52.6741C127.524 52.0141 127.294 51.3441 127.014 50.6741C126.884 50.3341 126.744 49.9941 126.604 49.6441C126.444 49.3041 126.274 48.9741 126.114 48.6341C125.944 48.2941 125.784 47.9441 125.604 47.6041C125.404 47.2641 125.214 46.9341 125.014 46.5941C124.644 45.9041 124.184 45.2541 123.704 44.6041C122.754 43.3041 121.624 42.0941 120.374 41.0241C120.204 40.8841 120.094 40.7641 119.884 40.6041L119.404 40.2541L118.444 39.5641C117.784 39.1141 117.054 38.6841 116.354 38.2841C114.924 37.5341 113.424 36.9241 111.894 36.6041C110.364 36.2841 108.794 36.2441 107.364 36.5641C105.934 36.8741 104.634 37.5941 103.804 38.6341C103.374 39.1341 103.104 39.7541 102.974 40.3441C102.964 40.5041 102.954 40.6541 102.944 40.8041C102.944 40.8941 102.934 40.9241 102.934 41.0541L102.964 41.2441C102.984 41.4741 103.074 41.8041 103.174 42.0541C103.604 43.1041 104.624 43.5541 105.354 43.5241C106.134 43.5241 106.604 43.0541 106.804 42.7541C107.014 42.4341 107.034 42.2241 107.044 42.2341C107.034 42.2341 106.974 42.4341 106.724 42.6941C106.494 42.9541 106.004 43.2641 105.364 43.1741C104.744 43.1141 104.014 42.6341 103.794 41.8241C103.554 41.0041 103.804 40.0241 104.564 39.2841C105.294 38.5341 106.394 38.0341 107.624 37.8441C108.854 37.6541 110.204 37.7841 111.554 38.1041C112.914 38.4341 114.234 39.0741 115.554 39.7641C116.184 40.1541 116.804 40.5141 117.444 40.9541L118.394 41.6641L118.864 42.0141C118.964 42.0941 119.134 42.2541 119.264 42.3741C120.414 43.3341 121.474 44.4341 122.364 45.6341C122.814 46.2341 123.274 46.8241 123.644 47.4541C123.844 47.7641 124.034 48.0741 124.234 48.3841C124.414 48.7041 124.584 49.0241 124.754 49.3441C124.924 49.6641 125.094 49.9741 125.254 50.2941C125.404 50.6141 125.554 50.9341 125.694 51.2541C126.004 51.8841 126.274 52.5041 126.504 53.1341C126.764 53.7441 126.974 54.3641 127.174 54.9541C127.324 55.3741 127.444 55.7641 127.574 56.1641C124.154 48.4541 116.904 45.4141 111.764 45.1941C104.854 44.9041 97.7241 52.1241 97.7441 59.3341C97.7741 66.5541 102.724 69.3241 106.794 68.5941C109.584 68.0941 111.254 64.7641 110.824 61.9641C110.384 59.1541 106.414 58.6441 105.104 60.1041C103.794 61.5641 104.664 63.7841 106.894 63.4941C106.894 65.6841 101.114 65.0441 100.844 60.7241C100.574 56.4041 106.014 49.8441 113.624 50.5541C121.244 51.2641 128.254 60.5741 128.114 69.7641C128.024 75.7441 125.454 82.2041 123.434 86.3041C125.224 79.7741 124.144 72.3241 118.854 70.2841C114.844 68.9041 110.874 72.0341 111.764 75.3841C112.654 78.7341 116.804 77.9341 117.464 76.1141C118.124 74.2941 116.954 72.7541 115.854 73.0541C117.974 72.3241 123.214 73.9341 121.764 80.3441C120.634 85.3241 116.394 88.5641 113.144 93.6441C114.544 94.8041 115.894 95.9641 117.164 97.2241C116.924 97.5341 116.764 97.8441 116.724 98.1341C116.324 100.904 118.974 100.464 121.024 99.6741C123.074 98.8841 134.214 106.334 121.854 125.564C121.854 125.564 132.254 112.834 129.754 102.064C127.764 93.5041 121.164 94.2341 118.184 96.2841Z" fill="url(#paint1_linear_39_475)"/>
<path d="M115.774 145.194C110.014 144.464 110.374 137.534 112.204 137.974C114.024 138.414 116.504 137.754 116.284 135.934C115.744 132.944 110.534 132.014 107.684 134.374C105.874 134.284 98.0541 134.324 96.7941 141.154C96.5741 144.054 99.8841 146.074 101.894 145.174C103.904 144.274 104.504 139.914 101.204 139.614C101.984 137.984 103.484 135.984 107.434 134.614C106.934 135.094 106.504 135.664 106.224 136.384C104.404 141.054 109.654 150.534 119.854 147.904C130.064 145.284 125.834 136.384 125.834 136.384C127.164 144.224 121.534 145.934 115.774 145.204V145.194Z" fill="url(#paint2_linear_39_475)"/>
<path d="M63.7141 129.584C61.9641 128.804 56.7841 132.184 61.5941 138.164C66.4041 144.144 77.7141 142.544 77.7141 142.544C62.0941 142.694 61.8341 133.534 63.0441 132.634C64.2441 131.734 65.4641 130.364 63.7141 129.584Z" fill="url(#paint3_linear_39_475)"/>
<path d="M131.224 136.184C131.214 135.984 131.204 135.784 131.194 135.584V135.434L131.154 135.244L131.104 134.954C131.034 134.564 131.004 134.194 130.854 133.734C130.734 133.284 130.584 132.834 130.374 132.434C130.274 132.224 130.174 132.014 130.074 131.804L129.704 131.204C128.714 129.584 127.234 128.224 125.594 127.144C123.954 126.044 122.184 125.124 120.404 124.284C118.634 123.434 116.844 122.574 115.044 121.704C113.264 120.874 111.544 120.004 110.104 118.934C108.714 117.824 107.544 116.574 107.204 115.044L107.064 114.474L107.024 113.884C106.964 113.504 107.024 113.104 107.044 112.704L107.064 112.404V112.364V112.344C107.064 112.374 107.084 112.264 107.054 112.394L107.074 112.314L107.104 112.154C107.144 111.944 107.194 111.684 107.244 111.604C107.314 111.384 107.484 111.054 107.684 110.824C108.494 109.824 109.994 109.374 111.224 109.534C111.844 109.614 112.394 109.854 112.814 110.204L113.094 110.454C113.184 110.584 113.304 110.724 113.374 110.834C113.504 111.034 113.624 111.284 113.704 111.534C114.044 112.554 113.854 113.584 113.384 114.214C112.914 114.854 112.264 115.134 111.814 115.194C111.594 115.254 111.414 115.234 111.284 115.254C111.164 115.254 111.104 115.264 111.104 115.264C111.104 115.264 111.164 115.264 111.284 115.284C111.404 115.284 111.584 115.354 111.824 115.334C112.284 115.344 113.084 115.244 113.784 114.554C114.464 113.884 114.944 112.654 114.674 111.294C114.614 110.954 114.514 110.614 114.334 110.244C114.254 110.064 114.174 109.944 114.094 109.794C113.954 109.584 113.844 109.464 113.704 109.294C113.144 108.684 112.364 108.264 111.514 108.054C109.844 107.654 107.754 107.944 106.224 109.504C106.024 109.684 105.864 109.914 105.714 110.144C105.554 110.354 105.414 110.644 105.294 110.924C105.144 111.244 105.114 111.424 105.044 111.644L104.994 111.804L104.974 111.884L104.954 112.004V112.054L104.894 112.424C104.824 112.924 104.734 113.424 104.774 113.964L104.804 114.764L104.954 115.564C105.024 116.114 105.274 116.614 105.454 117.144C105.714 117.624 105.944 118.154 106.284 118.584C106.904 119.524 107.724 120.244 108.544 120.934C110.234 122.234 112.094 123.204 113.914 124.074C115.724 124.914 117.544 125.754 119.324 126.574C121.104 127.394 122.834 128.144 124.334 129.074C125.844 129.994 127.174 131.034 128.084 132.284L128.424 132.754L128.704 133.244C128.904 133.574 129.024 133.894 129.164 134.214C129.324 134.504 129.414 134.924 129.514 135.294L129.594 135.574C129.594 135.574 129.634 135.714 129.614 135.664L129.634 135.794C129.664 135.974 129.694 136.144 129.714 136.324C129.924 137.714 129.884 139.034 129.664 140.174C129.444 141.314 129.064 142.284 128.674 143.034C128.514 143.334 128.364 143.584 128.224 143.824C130.664 139.274 127.884 132.844 123.874 129.744C120.584 127.194 115.114 125.694 109.474 125.534C107.274 125.244 103.694 125.104 99.0541 126.024C93.6441 127.114 90.9041 122.474 92.2141 119.294C93.5241 116.124 98.4441 115.034 101.564 115.744C97.5741 113.834 92.3241 113.224 88.6041 116.564C86.7141 118.264 85.5741 121.504 86.7941 124.294C85.5741 122.874 84.1341 120.904 83.0341 118.344C82.3941 116.824 81.8941 115.094 81.7841 113.224C81.7041 112.294 81.7841 111.344 81.8841 110.374C82.0541 109.414 82.2541 108.444 82.6441 107.504C83.3441 105.634 84.3941 103.694 85.8141 102.214C87.2541 100.734 89.1441 99.6342 91.1841 99.0342C93.2241 98.4342 95.4141 98.2743 97.4741 98.5843C99.5341 98.9043 101.484 99.7342 102.854 101.064C104.244 102.384 104.864 104.234 104.834 106.024C104.834 106.454 104.784 106.914 104.734 107.324C104.144 105.974 102.804 105.034 101.244 105.034C99.1341 105.034 97.4341 106.744 97.4341 108.844C97.4341 110.944 99.1341 112.654 101.244 112.654C102.084 112.654 102.854 112.374 103.484 111.914C103.694 111.794 103.894 111.654 104.084 111.484C104.834 110.844 105.334 109.964 105.664 109.034C105.834 108.564 105.954 108.054 106.054 107.614C106.154 107.094 106.224 106.604 106.244 106.074C106.404 103.994 105.654 101.614 103.994 99.9342C102.354 98.2342 100.064 97.2842 97.7441 96.9042C95.4141 96.5242 92.9741 96.6843 90.6841 97.3943C88.4041 98.0943 86.2341 99.3342 84.6241 101.104C83.7841 101.964 83.1941 103.004 82.6141 103.964C82.0841 104.964 81.5841 105.984 81.2541 107.044C80.8841 108.094 80.6941 109.174 80.5541 110.234C80.4741 111.304 80.4341 112.354 80.5641 113.354C80.7741 115.374 81.4341 117.194 82.1941 118.754C82.9741 120.314 83.9041 121.604 84.7841 122.684C85.6741 123.764 86.5241 124.624 87.2541 125.294C87.3441 125.374 87.4241 125.444 87.5041 125.514C87.8841 126.014 88.3541 126.484 88.9441 126.924C84.7141 125.054 80.5541 121.324 78.6441 114.004C78.1941 112.284 78.0341 111.444 77.9241 109.854C77.9041 109.614 77.9241 109.034 77.9241 109.034C78.4641 97.9442 87.2041 91.8742 95.6341 90.7742C107.814 89.1142 113.774 95.8943 115.774 98.8943C117.344 101.244 116.544 103.174 115.674 103.834C115.464 103.994 115.194 104.104 115.084 103.984C114.424 103.214 113.054 102.954 112.174 103.424C111.774 103.634 110.894 104.324 111.394 106.134C111.784 107.564 113.714 108.244 115.864 107.704C118.514 107.044 120.794 104.614 119.914 100.674C118.284 93.3743 109.634 87.8643 99.7941 87.8643C93.7341 87.8643 85.4741 90.6342 80.7041 96.8142C77.0641 101.524 76.0641 107.544 77.7941 114.224C80.6141 125.064 88.3741 128.354 94.1841 129.234C88.7641 132.514 85.4841 137.044 80.3241 138.214C73.9041 139.674 72.3041 134.424 73.0341 132.304C72.7441 133.394 74.2741 134.564 76.0941 133.904C77.9141 133.244 78.7141 129.094 75.3641 128.204C72.0141 127.314 68.8741 131.274 70.2641 135.294C72.3141 140.584 79.7541 141.664 86.2841 139.874C82.1941 141.894 75.7241 144.454 69.7441 144.554C60.5541 144.704 51.2441 137.684 50.5341 130.064C49.8241 122.454 56.3841 117.004 60.7041 117.284C65.0241 117.554 65.6641 123.334 63.4741 123.334C63.7641 121.114 61.5441 120.234 60.0841 121.544C58.6241 122.854 59.1341 126.834 61.9441 127.264C64.7541 127.704 68.0841 126.024 68.5841 123.234C69.3141 119.164 66.5441 114.214 59.3241 114.184C52.1041 114.154 44.8841 121.284 45.1741 128.204C45.3941 133.354 48.4441 140.634 56.2141 144.044C55.7941 143.914 55.3741 143.774 54.9341 143.614C54.3341 143.414 53.7241 143.194 53.1141 142.934C52.4941 142.704 51.8641 142.434 51.2341 142.124C50.9141 141.974 50.5941 141.834 50.2741 141.684C49.9641 141.514 49.6441 141.344 49.3241 141.184C49.0041 141.014 48.6841 140.854 48.3641 140.664C48.0541 140.474 47.7441 140.274 47.4341 140.074C46.7941 139.694 46.2141 139.244 45.6141 138.794C44.4141 137.904 43.3241 136.844 42.3641 135.684C42.2541 135.554 42.0841 135.384 42.0041 135.284L41.6541 134.814L40.9541 133.864C40.5041 133.234 40.1541 132.614 39.7541 131.974C39.0741 130.654 38.4241 129.334 38.0941 127.974C37.7741 126.624 37.6441 125.274 37.8441 124.044C38.0341 122.824 38.5441 121.714 39.2841 120.984C40.0241 120.234 41.0041 119.974 41.8241 120.214C42.6341 120.434 43.1141 121.164 43.1741 121.784C43.2641 122.424 42.9541 122.904 42.6941 123.144C42.4241 123.394 42.2241 123.444 42.2341 123.464C42.2341 123.444 42.4341 123.424 42.7541 123.224C43.0541 123.034 43.5341 122.554 43.5241 121.774C43.5641 121.044 43.1041 120.024 42.0541 119.594C41.8041 119.494 41.4741 119.404 41.2441 119.384L41.0541 119.354C40.9241 119.354 40.8841 119.354 40.8041 119.364C40.6541 119.374 40.5041 119.384 40.3441 119.394C39.7441 119.524 39.1341 119.794 38.6341 120.224C37.5941 121.054 36.8841 122.354 36.5641 123.784C36.2441 125.214 36.2841 126.784 36.6041 128.314C36.9241 129.854 37.5341 131.344 38.2841 132.774C38.6941 133.474 39.1241 134.204 39.5741 134.864L40.2641 135.824L40.6141 136.304C40.7741 136.514 40.8941 136.634 41.0341 136.794C42.1141 138.044 43.3141 139.184 44.6141 140.124C45.2641 140.604 45.9041 141.064 46.6041 141.444C46.9441 141.644 47.2741 141.834 47.6141 142.034C47.9541 142.214 48.3041 142.374 48.6441 142.544C48.9841 142.714 49.3241 142.874 49.6541 143.034C49.9941 143.174 50.3441 143.304 50.6841 143.444C51.3541 143.724 52.0241 143.954 52.6841 144.154C53.3441 144.374 53.9841 144.564 54.6141 144.724C55.2341 144.894 55.8441 145.024 56.4341 145.144C57.5141 145.384 58.5141 145.534 59.4241 145.644C56.6741 145.574 53.3541 145.204 50.6941 144.564C43.8841 142.924 38.7641 137.134 33.3241 131.554C32.9641 131.184 32.6041 130.814 32.2441 130.454C31.8741 130.084 31.5041 129.734 31.1341 129.394C27.3541 124.794 25.3341 116.994 28.7941 111.264C32.8841 104.494 40.3341 104.104 42.2441 104.424C44.1541 104.754 44.3241 107.264 43.2241 107.484C44.4841 107.924 47.2741 107.704 47.9241 107.154C48.5241 109.234 49.1241 113.484 45.4041 112.314C45.4041 112.314 45.7741 109.104 42.9241 108.884C40.0841 108.664 38.1841 113.334 42.9241 116.394C47.6641 119.454 53.2741 114.354 52.1841 109.464C51.0941 104.574 43.2141 96.7742 31.6941 105.304C24.7841 110.424 24.3841 118.404 26.5941 124.234C26.5341 124.134 26.4741 124.034 26.4141 123.934C25.4341 122.324 24.1841 120.504 22.6441 118.684C21.1041 116.874 19.2741 115.074 17.1341 113.614C16.0741 112.874 14.9141 112.254 13.7141 111.774C12.5141 111.304 11.2641 110.934 10.0141 110.844C8.78413 110.734 7.50413 110.844 6.40413 111.204C5.29413 111.554 4.26413 112.174 3.61413 113.044C2.96413 113.904 2.71413 114.894 2.75413 115.714C2.77413 116.544 3.01413 117.234 3.30413 117.724C3.58413 118.224 3.94413 118.534 4.19413 118.694C4.45413 118.844 4.61413 118.874 4.61413 118.874C4.61413 118.874 4.46413 118.804 4.26413 118.614C4.06413 118.414 3.82413 118.064 3.66413 117.574C3.50413 117.084 3.41413 116.454 3.50413 115.764C3.60413 115.084 3.89413 114.344 4.46413 113.784C5.03413 113.214 5.83413 112.794 6.78413 112.604C7.74413 112.384 8.75413 112.334 9.83413 112.484C11.9941 112.754 14.1741 113.744 16.1641 115.064C18.1441 116.404 19.9541 118.044 21.5241 119.704C22.3141 120.534 23.0641 121.354 23.7341 122.164C24.4141 122.974 25.0541 123.744 25.6141 124.484C25.9941 124.974 26.3341 125.434 26.6641 125.864C26.0641 125.334 25.3541 124.744 24.5041 124.134C23.4941 123.414 22.3041 122.654 20.8841 122.024C19.4841 121.384 17.8641 120.854 16.0941 120.584C14.3241 120.344 12.3841 120.324 10.4541 120.744C9.48413 120.924 8.53413 121.244 7.58413 121.604C7.06413 121.824 6.68413 121.974 6.20413 122.224C5.72413 122.474 5.25413 122.734 4.82413 123.034C3.06413 124.214 1.59413 125.964 0.784128 127.994C-0.0558715 130.024 -0.165872 132.274 0.194128 134.354C0.554128 136.444 1.43413 138.394 2.75413 139.964C3.41413 140.744 4.19413 141.424 5.08413 141.904C5.97413 142.384 6.99413 142.654 7.95413 142.664C8.83413 142.684 9.78413 142.604 10.6241 142.364C11.4841 142.114 12.2941 141.664 12.8741 141.014C13.4641 140.374 13.7741 139.564 13.8641 138.814C13.9541 138.054 13.8441 137.334 13.6141 136.714C13.4541 136.254 13.1741 135.794 12.8241 135.484C12.3041 134.934 11.5641 134.584 10.7341 134.584C9.14413 134.584 7.85413 135.874 7.85413 137.464C7.85413 139.054 9.14413 140.344 10.7341 140.344C11.4841 140.344 12.1541 140.054 12.6741 139.584C12.5341 139.844 12.3541 140.094 12.1241 140.304C11.1941 141.214 9.61413 141.464 7.99413 141.344C6.47413 141.264 5.02413 140.334 3.95413 138.984C1.83413 136.264 1.01413 132.084 2.38413 128.654C3.05413 126.944 4.25413 125.464 5.76413 124.424C6.13413 124.144 6.52413 123.914 6.90413 123.694C7.27413 123.484 7.80413 123.244 8.16413 123.074C9.02413 122.724 9.88413 122.404 10.7641 122.214C12.5141 121.774 14.2741 121.694 15.9241 121.834C17.5741 122.014 19.1341 122.374 20.5041 122.914C21.8741 123.444 23.1141 124.034 24.1541 124.654C24.8541 125.064 25.4741 125.474 26.0141 125.854C22.3041 124.004 19.0241 123.974 17.4341 125.794C14.9141 128.694 17.1541 132.194 19.8941 132.634C22.6341 133.074 23.3941 130.944 23.3441 129.734C25.5941 129.154 27.9641 130.814 31.1441 133.614C28.8341 132.524 26.0341 132.154 22.9541 133.774C20.1141 135.684 20.6541 140.224 22.9541 141.434C25.2541 142.634 29.7341 140.014 27.6041 136.734C29.7941 136.244 32.9341 136.184 37.4441 139.284C38.0841 139.834 38.7441 140.404 39.4441 140.974C37.7041 140.364 35.4841 140.224 32.9541 141.514C30.8741 142.914 31.2741 146.244 32.9541 147.124C34.6341 148.004 37.9241 146.084 36.3541 143.684C37.8441 143.354 40.3541 142.724 42.7841 143.424C49.0041 147.014 57.0341 146.484 61.3141 145.844C61.5941 145.864 61.8741 145.884 62.1241 145.894C63.5141 145.964 64.3041 145.924 64.3041 145.924C64.3041 145.924 64.0841 145.894 63.6841 145.824C64.3941 145.884 65.1141 145.914 65.8741 145.924C76.7041 145.974 86.7041 140.664 91.4341 137.694C98.5041 133.464 103.654 128.094 115.704 129.624C131.364 131.624 128.094 143.174 127.594 144.684C127.294 145.064 127.094 145.254 127.094 145.254C127.094 145.254 127.304 145.124 127.674 144.814C128.034 144.504 128.554 144.034 129.094 143.314C129.634 142.594 130.214 141.644 130.614 140.434C131.024 139.224 131.274 137.774 131.194 136.184H131.224Z" fill="url(#paint4_linear_39_475)"/>
<path d="M120.604 142.254C122.614 142.254 124.244 140.624 124.244 138.604C124.244 136.584 122.614 134.954 120.604 134.954C118.594 134.954 116.954 136.584 116.954 138.604C116.954 140.624 118.584 142.254 120.604 142.254Z" fill="url(#paint5_linear_39_475)"/>
<defs>
<linearGradient id="paint0_linear_39_475" x1="113.034" y1="68.6642" x2="126.294" y2="68.6642" gradientUnits="userSpaceOnUse">
<stop stop-color="#D69A2D"/>
<stop offset="0.18" stop-color="#DDAB44"/>
<stop offset="1" stop-color="#FFF8AF"/>
</linearGradient>
<linearGradient id="paint1_linear_39_475" x1="85.0641" y1="62.7941" x2="130.914" y2="62.7941" gradientUnits="userSpaceOnUse">
<stop stop-color="#FFF8AF"/>
<stop offset="0.82" stop-color="#DDAB44"/>
<stop offset="1" stop-color="#D69A2D"/>
</linearGradient>
<linearGradient id="paint2_linear_39_475" x1="96.7841" y1="140.694" x2="126.704" y2="140.694" gradientUnits="userSpaceOnUse">
<stop stop-color="#FFF8AF"/>
<stop offset="0.82" stop-color="#DDAB44"/>
<stop offset="1" stop-color="#D69A2D"/>
</linearGradient>
<linearGradient id="paint3_linear_39_475" x1="59.6041" y1="136.104" x2="77.7141" y2="136.104" gradientUnits="userSpaceOnUse">
<stop stop-color="#FFF8AF"/>
<stop offset="0.82" stop-color="#DDAB44"/>
<stop offset="1" stop-color="#D69A2D"/>
</linearGradient>
<linearGradient id="paint4_linear_39_475" x1="0.0241285" y1="117.594" x2="131.234" y2="117.594" gradientUnits="userSpaceOnUse">
<stop stop-color="#FFF8AF"/>
<stop offset="0.82" stop-color="#DDAB44"/>
<stop offset="1" stop-color="#D69A2D"/>
</linearGradient>
<linearGradient id="paint5_linear_39_475" x1="116.954" y1="138.604" x2="124.244" y2="138.604" gradientUnits="userSpaceOnUse">
<stop stop-color="#FFF8AF"/>
<stop offset="0.82" stop-color="#DDAB44"/>
<stop offset="1" stop-color="#D69A2D"/>
</linearGradient>
</defs>
</svg>
