<svg width="55" height="91" viewBox="0 0 55 91" fill="none" xmlns="http://www.w3.org/2000/svg">
<g opacity="0.78" clip-path="url(#clip0_39_430)">
<path d="M19.0042 54.0412C18.3449 54.0412 17.6894 53.9069 17.0838 53.6229C15.29 52.7785 14.1247 50.7521 14.2435 48.695C14.2819 48.0349 14.4429 47.3556 14.7303 46.6187C15.2056 45.406 15.8802 44.435 16.7312 43.7403C18.0306 42.6811 19.8781 42.2282 21.6758 42.5237C23.2435 42.7808 24.7728 43.5714 26.0914 44.8034C27.5595 46.1774 28.3107 47.7701 28.1996 49.2976C28.1689 49.7389 27.7856 50.069 27.3448 50.0383C26.904 50.0076 26.5744 49.6238 26.605 49.1824C26.7047 47.7893 25.6429 46.5727 24.999 45.974C23.9104 44.9569 22.6685 44.3083 21.4151 44.1011C20.0621 43.8785 18.686 44.2085 17.7354 44.9799C17.0991 45.4981 16.5894 46.2426 16.2137 47.1982C15.9876 47.7739 15.8649 48.2959 15.8342 48.7833C15.7538 50.1803 16.5625 51.6041 17.7584 52.1683C18.9697 52.7401 20.5834 52.3717 21.3538 51.3508C21.8674 50.6677 22.0016 49.7236 21.6911 48.9944C21.3768 48.2652 20.5834 47.7662 19.8474 47.8315C19.123 47.8967 18.4675 48.553 18.4484 49.24C18.4369 49.5662 18.5902 49.9155 18.8585 50.1764C19.1038 50.4144 19.4028 50.5449 19.6903 50.5295C20.1311 50.5065 20.5067 50.8442 20.5297 51.2856C20.5527 51.7269 20.2154 52.1031 19.7746 52.1261C19.0463 52.1645 18.3065 51.8689 17.7431 51.3163C17.1528 50.7406 16.8308 49.9654 16.8538 49.1901C16.8998 47.6972 18.1801 46.3693 19.7094 46.2349C21.1238 46.1083 22.5804 47.0025 23.163 48.3573C23.7034 49.6123 23.4965 51.1628 22.6379 52.3103C21.8061 53.4156 20.4109 54.0335 19.008 54.0335L19.0042 54.0412Z" fill="#D69A2D"/>
<path d="M27.3409 78.9069H21.8482C21.6297 78.9069 21.4189 78.8148 21.2656 78.6574C21.1161 78.4962 21.0356 78.2813 21.0471 78.0625C21.0471 78.0395 21.1659 75.8865 21.0471 73.4609C20.9513 71.5228 21.5952 70.0529 22.0092 69.3198C21.1199 67.9651 20.7673 66.6372 20.9628 65.3668C21.1889 63.9046 22.128 62.569 23.7494 61.4023C25.6007 60.0705 26.8349 58.1439 26.8503 58.1247C27.0879 57.7525 27.5824 57.6412 27.9542 57.8791C28.326 58.1171 28.4371 58.6121 28.1995 58.9844C28.142 59.0727 26.7813 61.195 24.6846 62.7033C23.4236 63.6129 22.7029 64.5916 22.542 65.6124C22.3925 66.5873 22.7489 67.6657 23.6114 68.8209C23.826 69.1088 23.8222 69.5041 23.6037 69.7881C23.596 69.7996 22.5381 71.2349 22.6455 73.3842C22.7259 74.9807 22.7068 76.4353 22.6799 77.3103H27.3371C27.7779 77.3103 28.1382 77.6672 28.1382 78.1124C28.1382 78.5538 27.7817 78.9145 27.3371 78.9145L27.3409 78.9069Z" fill="#D69A2D"/>
<path d="M27.4022 84.4066H18.6054C18.1646 84.4066 17.8043 84.0497 17.8043 83.6045V74.7888C17.7392 74.3168 17.4517 71.6303 18.8316 69.9493C18.1186 68.3297 16.3095 63.4249 19.2839 60.9917C23.7149 57.3687 26.1143 53.999 26.6126 50.6831C26.6778 50.2456 27.0841 49.9462 27.521 50.0115C27.958 50.0767 28.257 50.4835 28.1918 50.9211C27.6322 54.6438 25.0487 58.3435 20.2958 62.2313C18.203 63.9392 19.7362 68.2337 20.5028 69.7459C20.6714 70.0759 20.5909 70.4789 20.3073 70.7169C19.2111 71.6495 19.2762 73.8409 19.395 74.6085C19.4027 74.6468 19.4027 74.6891 19.4027 74.7313V82.8023H27.4022C27.843 82.8023 28.2033 83.1593 28.2033 83.6045C28.2033 84.0458 27.8469 84.4066 27.4022 84.4066Z" fill="#D69A2D"/>
<path d="M10.261 88.0103C9.83938 88.0103 9.48674 87.6802 9.46374 87.2504C9.44075 86.809 9.78188 86.4329 10.2227 86.4099C12.0089 86.3177 16.8653 85.5732 17.8734 83.282C19.3338 79.9737 21.1506 77.7017 21.2273 77.6058C21.5033 77.2604 22.0092 77.2066 22.3504 77.4829C22.6953 77.7593 22.749 78.2659 22.473 78.6075C22.4577 78.6305 20.7098 80.8219 19.3376 83.9267C18.64 85.508 16.8768 86.6785 14.0979 87.3962C12.1354 87.9066 10.3798 87.9987 10.307 88.0026C10.2917 88.0026 10.2802 88.0026 10.2648 88.0026L10.261 88.0103Z" fill="#D69A2D"/>
<path d="M9.93517 64.7528C6.73077 64.7528 4.39263 64.0965 4.18948 64.0389C3.76401 63.9161 3.52253 63.4709 3.64519 63.0487C3.76784 62.6227 4.20864 62.381 4.63411 62.5038C4.73377 62.5345 14.7494 65.3169 21.6834 58.8463C22.0054 58.5431 22.5113 58.5623 22.8141 58.8846C23.1169 59.207 23.0978 59.7136 22.7758 60.0168C18.6668 63.8509 13.7069 64.7566 9.94284 64.7566L9.93517 64.7528Z" fill="#D69A2D"/>
<path d="M27.4636 39.9255C27.0305 39.9255 26.674 39.58 26.6664 39.1464C26.5552 34.656 24.1097 32.5145 22.3619 31.555C22.4462 31.8928 22.4884 32.2305 22.4922 32.5644C22.4922 32.6603 22.4922 32.7525 22.4845 32.8446C22.3734 34.6983 21.0548 36.4215 19.123 37.2428C17.3253 38.0065 15.4624 37.7878 14.14 36.6556C12.3769 35.1435 11.3841 32.6066 11.6064 30.1926C11.7597 28.5461 12.4957 27.1415 13.7376 26.1321C15.267 24.8886 17.4518 24.3245 19.7286 24.5854C23.4543 25.0114 26.8043 27.5061 28.2686 30.941C28.441 31.3478 28.2532 31.816 27.8469 31.9926C27.4406 32.1653 26.973 31.9772 26.7967 31.5704C25.5739 28.6997 22.6608 26.5351 19.5446 26.1743C17.7201 25.9632 15.9262 26.4123 14.7457 27.3756C13.8334 28.1163 13.3121 29.1141 13.201 30.3384C13.0246 32.2497 13.8027 34.2531 15.1826 35.4351C16.0336 36.1643 17.2716 36.2871 18.502 35.7652C19.8589 35.1895 20.8172 33.9767 20.8938 32.7486C20.8938 32.6911 20.8977 32.6296 20.8977 32.5682C20.8938 31.9312 20.637 31.2403 20.1387 30.5226C19.9509 30.254 19.9471 29.8932 20.1311 29.6207C20.315 29.3483 20.6485 29.2139 20.9667 29.283C21.0395 29.2984 22.7912 29.6975 24.5582 31.1098C26.1911 32.4147 28.1651 34.8595 28.2686 39.1041C28.2801 39.5455 27.9312 39.9139 27.4905 39.9255C27.4828 39.9255 27.479 39.9255 27.4713 39.9255H27.4636Z" fill="#D69A2D"/>
<path d="M0.988944 57.2573C0.962113 57.2573 0.935282 57.2573 0.904618 57.2535C0.463821 57.2074 0.14568 56.816 0.191676 56.3746C0.812625 50.3185 4.29301 46.0315 10.261 43.9706C14.6805 42.447 18.8546 42.6849 19.0271 42.6964C19.4679 42.7233 19.8014 43.1032 19.7746 43.5446C19.7477 43.9859 19.3683 44.3198 18.9275 44.293C18.8891 44.293 14.8568 44.0627 10.7363 45.4981C5.35092 47.371 2.33817 51.086 1.78238 56.5358C1.74022 56.9465 1.39141 57.2535 0.988944 57.2535V57.2573Z" fill="#D69A2D"/>
<path d="M10.146 61.1605C9.97348 61.1605 9.80483 61.149 9.63617 61.126C7.88832 60.8765 6.78441 59.4718 6.28228 58.6544C5.33936 57.1231 4.89089 55.1926 5.00972 53.2123C5.11321 51.5006 5.63067 49.7313 6.53909 47.9544C7.25203 46.5612 8.40961 44.6346 10.2188 44.0359C10.6366 43.8977 11.0889 44.1242 11.2307 44.5425C11.3687 44.9608 11.1425 45.4137 10.7248 45.5557C9.78566 45.8666 8.88107 46.8913 7.96498 48.6836C7.15621 50.2609 6.70008 51.8191 6.60809 53.3121C6.50843 54.9623 6.8764 56.5627 7.64684 57.8177C8.24862 58.7964 9.05739 59.4258 9.86615 59.5409C10.5063 59.633 11.2192 59.3989 11.7367 58.9345C12.35 58.3819 12.6374 57.503 12.4381 56.8007C12.2426 56.1099 11.5105 55.5879 10.8666 55.6762C10.5638 55.7184 10.261 55.9295 10.077 56.2327C9.91215 56.4937 9.86615 56.7815 9.94281 57.0156C10.0808 57.4339 9.85466 57.8868 9.43686 58.0288C9.01906 58.167 8.56676 57.9405 8.42494 57.5222C8.19879 56.8352 8.30611 56.06 8.72008 55.3922C9.15705 54.6899 9.87765 54.2024 10.6481 54.0988C12.0701 53.8992 13.565 54.9201 13.979 56.3747C14.3431 57.6604 13.8755 59.1725 12.8099 60.132C12.0701 60.7998 11.1081 61.172 10.1536 61.172L10.146 61.1605Z" fill="#D69A2D"/>
<path d="M11.6524 64.5685C11.342 64.5685 11.0468 64.3843 10.9165 64.0811C10.744 63.6743 10.9357 63.2061 11.342 63.0334C12.5302 62.5306 13.8526 61.905 14.5425 60.8381C14.8645 60.3392 15.0792 59.7059 15.2248 58.8386C15.3475 58.1017 15.3705 57.5107 15.2938 56.9772C15.0332 55.0928 13.2048 53.4732 11.3036 53.4463C9.40245 53.4272 7.53193 54.9853 7.21763 56.8621C7.1448 57.2996 6.73467 57.5913 6.2977 57.5183C5.86074 57.4454 5.56943 57.0348 5.64226 56.5972C6.08689 53.9376 8.64351 51.7999 11.3266 51.8459C14.0174 51.8843 16.5089 54.0873 16.8768 56.7546C16.9727 57.4531 16.9497 58.1976 16.8002 59.0995C16.62 60.1933 16.3287 61.0223 15.8841 61.7093C14.9488 63.1562 13.3696 63.9122 11.9629 64.511C11.8594 64.5532 11.7559 64.5762 11.6524 64.5762V64.5685Z" fill="#D69A2D"/>
<path d="M12.5033 44.7459C10.9317 44.7459 9.40619 44.0282 8.4556 42.8231C7.39386 41.476 7.14088 39.5456 7.82315 38.0181C8.07997 37.4424 8.4326 37.0011 8.86574 36.7017C9.43686 36.3102 10.0923 36.2143 10.6634 36.1529C11.0697 36.1107 11.5412 36.0685 12.0241 36.1491C13.2929 36.3563 14.3508 37.3849 14.5999 38.6437C14.8491 39.9063 14.2588 41.2573 13.1664 41.9327C12.7333 42.1976 12.2771 42.328 11.8402 42.305C10.7439 42.2513 10.0578 41.3264 9.686 40.8274C9.42152 40.4744 9.49818 39.9716 9.85082 39.7068C10.2035 39.442 10.7056 39.5187 10.9701 39.8718C11.1655 40.1366 11.5757 40.6893 11.9168 40.7046C12.028 40.7085 12.1736 40.6624 12.327 40.5665C12.8482 40.2441 13.1511 39.5494 13.0322 38.9507C12.9134 38.352 12.3691 37.8224 11.7673 37.7226C11.4837 37.6765 11.154 37.7034 10.8397 37.7379C10.4449 37.7802 10.0348 37.8377 9.77033 38.0181C9.58634 38.1448 9.42152 38.3674 9.28737 38.6629C8.84274 39.6569 9.01522 40.9272 9.71667 41.8214C10.4028 42.6926 11.5948 43.2069 12.7562 43.1225C13.1932 43.0918 13.5803 43.4257 13.611 43.867C13.6417 44.3084 13.3082 44.6922 12.8674 44.7229C12.7486 44.7306 12.6298 44.7344 12.5071 44.7344L12.5033 44.7459Z" fill="#D69A2D"/>
<path d="M21.2196 26.4469C21.1506 26.4469 21.0855 26.4392 21.0165 26.42C19.7363 26.0823 18.5979 25.188 17.9654 24.029C17.333 22.8661 17.1988 21.4231 17.6089 20.1643C17.8734 19.3506 18.3295 18.6905 18.9313 18.253C19.5753 17.7809 20.3457 17.6044 20.9475 17.5008C21.5071 17.4048 22.1664 17.3281 22.8372 17.4969C23.9718 17.7809 24.8802 18.7404 25.0987 19.8918C25.3171 21.0393 24.8265 22.2713 23.8759 22.9506C23.3048 23.3574 22.634 23.5186 22.0361 23.3881C21.2273 23.2115 20.6255 22.4977 20.6294 21.7186C20.5105 21.592 20.43 21.4231 20.4147 21.235C20.3802 20.7937 20.7098 20.4099 21.1468 20.3753C21.419 20.3523 21.6796 20.4444 21.8751 20.6286C22.2316 20.9625 22.2277 21.4423 22.2239 21.7263C22.2316 21.7455 22.2967 21.8107 22.3734 21.8261C22.5267 21.8606 22.7452 21.7915 22.9445 21.6495C23.3815 21.3348 23.6268 20.7246 23.5271 20.195C23.4275 19.6653 22.9752 19.1856 22.45 19.0551C22.0667 18.9592 21.6106 19.0167 21.2158 19.0858C20.7597 19.1626 20.2461 19.2815 19.8743 19.554C19.5523 19.7881 19.2878 20.1873 19.1306 20.6709C18.8547 21.519 18.9428 22.49 19.3721 23.2729C19.7976 24.0559 20.568 24.6584 21.4266 24.8849C21.8521 24.9962 22.1089 25.4337 21.9977 25.8635C21.9019 26.2243 21.5799 26.4622 21.2235 26.4622L21.2196 26.4469Z" fill="#D69A2D"/>
<path d="M23.4197 19.151C23.0709 19.151 22.749 18.9169 22.6493 18.5638C22.5305 18.1378 22.7835 17.6964 23.2089 17.5774C23.6497 17.4546 24.0407 17.1399 24.2515 16.7369C24.4623 16.334 24.5007 15.8312 24.3512 15.4014C24.3013 15.2555 24.2247 15.0982 24.1059 14.8948C23.757 14.2922 23.3852 13.9238 22.9981 13.801C22.818 13.7434 22.5918 13.7242 22.289 13.7396C22.0552 13.7511 21.9019 13.7818 21.8367 13.8317C21.7907 13.8662 21.7447 13.9622 21.7447 14.0773C21.7447 14.2231 21.8214 14.3958 21.944 14.5532C22.2162 14.9024 22.1548 15.4052 21.806 15.6777C21.4572 15.9502 20.9551 15.8888 20.683 15.5395C20.3418 15.102 20.1578 14.6069 20.1463 14.1118C20.1348 13.4786 20.4108 12.8914 20.8938 12.5421C21.3269 12.2236 21.829 12.1622 22.2162 12.143C22.7183 12.12 23.1208 12.1622 23.4887 12.2812C24.263 12.5306 24.9376 13.1408 25.4934 14.0965C25.6007 14.2807 25.7541 14.5647 25.8652 14.8832C26.1604 15.7391 26.0875 16.687 25.6697 17.4892C25.2481 18.2913 24.5083 18.8862 23.6382 19.1279C23.5654 19.1471 23.4964 19.1586 23.4236 19.1586L23.4197 19.151Z" fill="#D69A2D"/>
<path d="M20.9781 43.798C20.6561 43.798 20.3533 43.6022 20.2306 43.2875C19.832 42.2551 19.74 41.0923 19.97 40.01C20.016 39.7874 20.0926 39.4957 20.2536 39.2155C20.4798 38.8202 20.8439 38.494 21.3345 38.2484C22.6914 37.5652 24.3588 37.8799 25.2059 38.9737C25.8613 39.8219 25.9188 41.0539 25.34 41.902C24.6923 42.8538 23.3392 43.1685 22.3886 42.5852C22.013 42.3549 21.8942 41.8598 22.1241 41.4837C22.3541 41.1076 22.8486 40.9886 23.2242 41.2189C23.4504 41.3571 23.8528 41.2496 24.0177 41.0001C24.2093 40.7161 24.1748 40.2556 23.941 39.9524C23.5654 39.465 22.7183 39.3422 22.0513 39.6761C21.8482 39.7759 21.7102 39.891 21.6412 40.01C21.5913 40.0982 21.5569 40.2364 21.5339 40.3439C21.369 41.1268 21.4342 41.9673 21.7217 42.7118C21.8827 43.1225 21.6757 43.5869 21.2655 43.7481C21.1697 43.7864 21.0739 43.8018 20.9781 43.8018V43.798Z" fill="#D69A2D"/>
<path d="M13.1626 72.2673C12.511 72.2673 11.867 72.0946 11.3227 71.7415C10.7325 71.3577 10.238 70.7552 9.89302 70.003C9.44072 69.0128 9.38706 68.0265 9.7397 67.2243C10.2112 66.1651 11.4224 65.5203 12.5646 65.7314C13.703 65.9387 14.6115 66.971 14.6766 68.1301C14.6996 68.5714 14.3623 68.9475 13.9215 68.9744C13.4769 68.9974 13.1051 68.6597 13.0783 68.2184C13.0553 67.7923 12.695 67.3817 12.2733 67.3049C11.8555 67.2282 11.3726 67.4815 11.1962 67.8729C11.0314 68.2414 11.0851 68.7748 11.3419 69.3352C11.4952 69.6691 11.7635 70.1219 12.189 70.3983C12.8138 70.8051 13.749 70.7475 14.4121 70.2563C15.0638 69.7727 15.4701 68.9053 15.4739 67.9881C15.4739 67.1207 15.1366 66.1996 14.5195 65.3898C14.186 64.9523 13.8564 64.699 13.5651 64.6606C13.1281 64.6031 12.8176 64.2039 12.8751 63.7664C12.9326 63.3289 13.3312 63.018 13.7682 63.0756C14.5003 63.1677 15.1788 63.6206 15.7882 64.4189C16.62 65.5088 17.0723 66.7753 17.0723 67.9919C17.0723 69.4273 16.4283 70.7552 15.3627 71.542C14.715 72.0217 13.9292 72.2635 13.1588 72.2635L13.1626 72.2673Z" fill="#D69A2D"/>
<path d="M11.5795 85.4427C10.5062 85.4427 9.62465 84.7826 9.25668 83.662C9.1187 83.2398 9.34868 82.7908 9.77031 82.6526C10.1919 82.5144 10.6404 82.7447 10.7784 83.1669C10.9509 83.7003 11.2997 83.9191 11.8095 83.8193C12.4189 83.7003 13.0207 83.1477 12.9709 82.4223C12.9134 81.5511 12.4803 81.0906 11.6792 81.056C10.5446 81.0061 9.07653 81.8888 8.88488 83.1055C8.81589 83.543 8.40959 83.8423 7.97262 83.7732C7.53566 83.7042 7.23668 83.2973 7.30568 82.8598C7.57399 81.1328 9.4215 79.352 11.7481 79.4595C13.3772 79.5324 14.4543 80.6262 14.5654 82.3225C14.6689 83.9306 13.4002 85.1472 12.1085 85.3928C11.9283 85.4274 11.7481 85.4466 11.5757 85.4466L11.5795 85.4427Z" fill="#D69A2D"/>
<path d="M13.4386 81.6278C13.1243 81.6278 12.8253 81.4398 12.6988 81.1327C12.5302 80.7221 12.7257 80.2577 13.1358 80.0888C14.163 79.6667 15.0408 78.7916 15.3704 77.859C15.7806 76.7038 15.2324 75.8979 14.6997 75.422C13.8526 74.6659 12.511 74.332 11.7674 74.6966C11.6217 74.7695 11.1771 74.9845 11.2423 75.9056C11.2768 76.3776 11.6102 76.9149 12.0549 77.2066C12.2849 77.3563 12.6375 77.506 13.0208 77.3716C13.3083 77.268 13.5498 77.0147 13.5689 76.7883C13.6073 76.3469 13.9944 76.0245 14.4352 76.0629C14.876 76.1013 15.198 76.4889 15.1596 76.9303C15.083 77.7823 14.439 78.5652 13.5536 78.8799C12.7717 79.1562 11.9284 79.0373 11.1771 78.546C10.3147 77.978 9.7129 76.9878 9.64774 76.0169C9.55958 74.7504 10.077 73.7448 11.0621 73.2613C12.3922 72.6088 14.4122 73.0233 15.7614 74.2284C17.0148 75.3452 17.4173 76.865 16.8768 78.3963C16.3939 79.7588 15.1903 80.9754 13.7414 81.5703C13.6417 81.6125 13.5383 81.6317 13.4386 81.6317V81.6278Z" fill="#D69A2D"/>
<path d="M44.5817 91H10.3989C9.95808 91 9.59777 90.6431 9.59777 90.1979V87.7263C8.60502 87.189 6.75751 85.6155 6.96832 81.4283C7.21364 76.5312 6.96832 68.9783 6.96832 68.9015C6.96832 68.8708 6.96832 68.8401 6.96832 68.8094C6.97982 68.6559 7.23663 64.9446 4.27371 64.0312C2.86316 63.5975 1.67109 62.3617 0.908319 60.5579C-0.417906 57.4147 -0.655553 51.727 2.67151 45.1987C6.74217 37.2083 23.0095 7.62589 26.5052 1.27419V0.802134C26.5052 0.437535 26.7505 0.118991 27.107 0.0268823C27.2373 -0.00765867 27.3677 -0.00765867 27.4941 0.0268823C27.6168 -0.00382079 27.751 -0.00382079 27.8813 0.0268823C28.2339 0.118991 28.4831 0.437535 28.4831 0.802134V1.27419C31.9788 7.62589 48.2423 37.2083 52.3129 45.1987C55.6362 51.727 55.4024 57.4147 54.0761 60.5579C53.3134 62.3617 52.1175 63.5937 50.7107 64.0312C47.7478 64.9485 48.0046 68.6559 48.0161 68.8132C48.0161 68.8439 48.0161 68.8746 48.0161 68.9053C48.0161 68.9821 47.7708 76.535 48.0161 81.4322C48.2269 85.6193 46.3794 87.1928 45.3867 87.7301V90.2017C45.3867 90.6431 45.0302 91.0039 44.5856 91.0039L44.5817 91ZM11.1961 89.3996H43.7806V87.2082C43.7806 86.8436 44.026 86.525 44.3786 86.4329C44.4591 86.4099 46.6209 85.7191 46.4101 81.5128C46.1686 76.7384 46.3871 69.504 46.4101 68.8938C46.3948 68.6405 46.3526 67.5199 46.7091 66.2764C47.2572 64.3498 48.4761 63.0487 50.2316 62.5037C51.1822 62.2082 52.0216 61.2987 52.5966 59.9362C53.7848 57.123 53.9573 51.9649 50.8832 45.9241C46.9659 38.233 31.699 10.4391 27.4903 2.79399C23.2855 10.4429 8.01474 38.2368 4.09739 45.9279C1.02331 51.9688 1.1958 57.1269 2.38403 59.94C2.95898 61.3025 3.79842 62.2121 4.749 62.5076C6.50453 63.0487 7.72343 64.3536 8.27155 66.2802C8.62802 67.5237 8.58586 68.6444 8.57052 68.8977C8.58969 69.5079 8.80817 76.7423 8.57052 81.5166C8.35971 85.7229 10.5215 86.4137 10.6135 86.4406C10.9662 86.5327 11.2 86.8474 11.2 87.212V89.4035L11.1961 89.3996Z" fill="#D69A2D"/>
<path d="M35.8924 54.0412C34.4895 54.0412 33.0905 53.4233 32.2625 52.318C31.4001 51.1743 31.1931 49.6238 31.7374 48.365C32.32 47.0102 33.7766 46.116 35.191 46.2426C36.7203 46.3769 38.0006 47.7049 38.0466 49.1978C38.0695 49.973 37.7437 50.7483 37.1573 51.324C36.5938 51.8766 35.8541 52.1683 35.1258 52.1338C34.685 52.1107 34.3477 51.7346 34.3707 51.2933C34.3937 50.8519 34.7655 50.5103 35.2101 50.5372C35.4976 50.5526 35.7966 50.4221 36.0419 50.1841C36.3102 49.9231 36.4635 49.5739 36.452 49.2477C36.4328 48.5607 35.7774 47.9044 35.053 47.8392C34.317 47.7739 33.5236 48.2729 33.2093 49.0021C32.895 49.7274 33.033 50.6754 33.5466 51.3585C34.317 52.3794 35.9269 52.7478 37.142 52.176C38.3379 51.6118 39.1466 50.188 39.0661 48.791C39.0355 48.2997 38.9128 47.7816 38.6867 47.2059C38.3149 46.2503 37.8012 45.5057 37.165 44.9876C36.2144 44.2124 34.8383 43.8862 33.4853 44.1088C32.228 44.316 30.99 44.9608 29.9014 45.9816C29.2574 46.5804 28.1957 47.797 28.2953 49.1901C28.326 49.6315 27.9964 50.0153 27.5556 50.046C27.1148 50.0767 26.7315 49.7466 26.7008 49.3052C26.5935 47.7816 27.3409 46.1851 28.809 44.8111C30.1314 43.5753 31.6569 42.7885 33.2246 42.5314C35.0223 42.2359 36.8698 42.6926 38.1692 43.748C39.0201 44.4427 39.6948 45.4098 40.17 46.6264C40.4575 47.3633 40.6185 48.0426 40.6568 48.7027C40.7795 50.7598 39.6104 52.7862 37.8166 53.6305C37.2148 53.9145 36.5555 54.0489 35.8962 54.0489L35.8924 54.0412Z" fill="#D69A2D"/>
<path d="M33.0483 78.9069H27.5556C27.1148 78.9069 26.7545 78.5499 26.7545 78.1047C26.7545 77.6595 27.111 77.3026 27.5556 77.3026H32.2127C32.1859 76.4276 32.1667 74.973 32.2472 73.3765C32.3545 71.1965 31.3004 69.7957 31.2889 69.7804C31.0705 69.4964 31.0666 69.1011 31.2813 68.8132C32.1399 67.658 32.5002 66.5796 32.3507 65.6048C32.1935 64.5839 31.4729 63.6014 30.208 62.6956C28.1114 61.1874 26.7507 59.065 26.6932 58.9767C26.4555 58.6045 26.5667 58.1094 26.9385 57.8714C27.3103 57.6335 27.8047 57.7448 28.0424 58.117C28.0539 58.1362 29.3034 60.0705 31.1433 61.3946C32.7685 62.5652 33.7038 63.8969 33.9299 65.3591C34.1254 66.6333 33.7727 67.9612 32.8835 69.3121C33.2975 70.0452 33.9414 71.5151 33.8456 73.4532C33.7229 75.8826 33.8456 78.0318 33.8456 78.0548C33.8571 78.2736 33.7804 78.4885 33.6271 78.6497C33.4776 78.8109 33.2668 78.8992 33.0445 78.8992L33.0483 78.9069Z" fill="#D69A2D"/>
<path d="M36.291 84.4065H27.4942C27.0534 84.4065 26.6931 84.0496 26.6931 83.6044C26.6931 83.1631 27.0496 82.8023 27.4942 82.8023H35.4937V74.7313C35.4937 74.689 35.4937 74.6468 35.5052 74.6084C35.6202 73.8447 35.6854 71.6533 34.5891 70.7168C34.3055 70.475 34.2288 70.0721 34.3937 69.742C35.1603 68.2337 36.6935 63.9391 34.6006 62.2274C29.8477 58.3435 27.2642 54.6438 26.7046 50.9172C26.6969 50.8788 26.6969 50.8366 26.6969 50.7982V1.13989C26.6969 0.698529 27.0534 0.337769 27.498 0.337769C27.9388 0.337769 28.2992 0.694692 28.2992 1.13989V50.7445C28.8166 54.0374 31.2122 57.3917 35.6164 60.9955C38.5908 63.4249 36.7816 68.3297 36.0687 69.9531C37.4486 71.6341 37.1611 74.3206 37.0959 74.7927V83.6083C37.0959 84.0496 36.7395 84.4104 36.2948 84.4104L36.291 84.4065Z" fill="#D69A2D"/>
<path d="M44.6355 88.0103C44.6355 88.0103 44.6086 88.0103 44.5933 88.0103C44.5205 88.0103 42.7611 87.9105 40.8025 87.4039C38.0235 86.6824 36.2603 85.5156 35.5627 83.9344C34.1905 80.8296 32.4426 78.6343 32.4273 78.6151C32.1513 78.2697 32.205 77.767 32.55 77.4906C32.8949 77.2143 33.3971 77.268 33.673 77.6135C33.7497 77.7094 35.5665 79.9814 37.0269 83.2897C38.0388 85.5809 42.8953 86.3216 44.6815 86.4176C45.1223 86.4406 45.4596 86.8167 45.4366 87.258C45.4136 87.6841 45.0609 88.0179 44.6393 88.0179L44.6355 88.0103Z" fill="#D69A2D"/>
<path d="M44.9613 64.7527C41.1973 64.7527 36.2373 63.847 32.1283 60.0129C31.8064 59.7097 31.7872 59.207 32.09 58.8807C32.3928 58.5584 32.8988 58.5392 33.2208 58.8424C40.1547 65.313 50.1665 62.5267 50.27 62.4999C50.6955 62.3771 51.1363 62.6227 51.2589 63.0487C51.3816 63.4747 51.1363 63.916 50.7147 64.0389C50.5115 64.0964 48.1734 64.7527 44.969 64.7527H44.9613Z" fill="#D69A2D"/>
<path d="M27.4329 39.9255C27.4329 39.9255 27.4214 39.9255 27.4137 39.9255C26.9729 39.9139 26.6241 39.5493 26.6356 39.1041C26.7391 34.8595 28.7093 32.4147 30.346 31.1098C32.1168 29.6975 33.8647 29.2984 33.9375 29.283C34.2595 29.2139 34.5891 29.3444 34.7731 29.6207C34.9571 29.8932 34.9533 30.254 34.7654 30.5226C34.2671 31.2403 34.0103 31.9312 34.0065 32.5721C34.0065 32.6296 34.0065 32.691 34.0103 32.7525C34.0832 33.9767 35.0453 35.1895 36.3983 35.7652C37.6249 36.2871 38.8668 36.1643 39.7177 35.4351C41.0976 34.2492 41.8757 32.2497 41.6994 30.3384C41.5844 29.1141 41.0669 28.1163 40.1547 27.3756C38.9741 26.4161 37.1802 25.9671 35.3557 26.1743C32.2395 26.5312 29.3264 28.6997 28.1037 31.5704C27.9312 31.9772 27.4597 32.1653 27.0534 31.9926C26.6471 31.8199 26.4593 31.3478 26.6318 30.941C28.096 27.5061 31.446 25.0114 35.1717 24.5854C37.4486 24.3245 39.6295 24.8886 41.1628 26.1321C42.4047 27.1415 43.1406 28.5461 43.2939 30.1926C43.5162 32.6066 42.5235 35.1435 40.7603 36.6517C39.4379 37.7839 37.575 38.0065 35.7774 37.2389C33.8455 36.4176 32.527 34.6944 32.4158 32.8446C32.412 32.7486 32.4081 32.6565 32.4081 32.5644C32.4081 32.2267 32.4541 31.8889 32.5385 31.5512C30.7906 32.5107 28.3413 34.6522 28.234 39.1425C28.2225 39.5762 27.866 39.9216 27.4367 39.9216L27.4329 39.9255Z" fill="#D69A2D"/>
<path d="M54.1989 57.3532C53.7926 57.3532 53.4477 57.0462 53.4055 56.6356C52.8459 51.1704 49.768 47.4323 44.2599 45.5326C40.0666 44.0857 36.0036 44.2929 35.9614 44.2929C35.5206 44.316 35.145 43.9782 35.1182 43.5369C35.0952 43.0955 35.4325 42.7194 35.8733 42.6925C36.0534 42.681 40.2928 42.4661 44.7812 44.0166C50.8412 46.1083 54.3753 50.4144 54.9962 56.4667C55.0422 56.9081 54.7202 57.2995 54.2833 57.3456C54.2564 57.3456 54.2296 57.3494 54.1989 57.3494V57.3532Z" fill="#D69A2D"/>
<path d="M44.7505 61.1605C43.7961 61.1605 42.834 60.7882 42.0942 60.1204C41.0325 59.1609 40.561 57.6488 40.9251 56.3631C41.3353 54.9124 42.8302 53.8915 44.256 54.0872C45.0265 54.1947 45.7471 54.6783 46.1841 55.3806C46.598 56.0484 46.7053 56.8236 46.4792 57.5106C46.3412 57.929 45.8889 58.1592 45.4673 58.0172C45.0495 57.8791 44.8195 57.4262 44.9613 57.004C45.038 56.7699 44.992 56.4859 44.8272 56.2211C44.6393 55.9217 44.3365 55.7068 44.0376 55.6646C43.3936 55.5763 42.6615 56.1021 42.466 56.7891C42.2667 57.4914 42.5542 58.3703 43.1675 58.923C43.6811 59.3874 44.3979 59.6215 45.038 59.5294C45.8429 59.4142 46.6517 58.7848 47.2573 57.8061C48.0277 56.555 48.3957 54.9546 48.296 53.3005C48.2041 51.8075 47.7479 50.2532 46.9392 48.672L46.8357 48.4724C46.2109 47.2443 45.5631 45.974 44.4707 45.6132C44.0529 45.475 43.8229 45.0222 43.9647 44.6C44.1027 44.1817 44.555 43.9514 44.9766 44.0934C46.69 44.6614 47.5256 46.3002 48.2615 47.7432L48.3612 47.939C49.2696 49.7159 49.7833 51.4852 49.8906 53.1968C50.0132 55.1734 49.5609 57.1076 48.618 58.639C48.1159 59.4526 47.0158 60.8573 45.2641 61.1106C45.0955 61.1336 44.923 61.1451 44.7543 61.1451L44.7505 61.1605Z" fill="#D69A2D"/>
<path d="M43.2442 64.5685C43.1407 64.5685 43.0333 64.5493 42.9337 64.5033C41.527 63.9084 39.9478 63.1485 39.0125 61.7016C38.5679 61.0146 38.2766 60.1856 38.0964 59.0918C37.9469 58.1899 37.9239 57.4454 38.0197 56.7469C38.3877 54.0757 40.8792 51.8728 43.57 51.8383C46.2684 51.7922 48.8135 53.9337 49.2543 56.5895C49.3272 57.0271 49.032 57.4377 48.5989 57.5106C48.1619 57.5836 47.7518 57.288 47.679 56.8544C47.3646 54.9776 45.4941 53.4195 43.593 53.4386C41.6918 53.4655 39.8634 55.0813 39.6028 56.9695C39.53 57.503 39.553 58.094 39.6718 58.8309C39.8136 59.6982 40.0321 60.3353 40.3541 60.8304C41.044 61.8973 42.3664 62.5229 43.5546 63.0257C43.9609 63.1984 44.1526 63.6666 43.9801 64.0734C43.8498 64.3804 43.5546 64.5608 43.2442 64.5608V64.5685Z" fill="#D69A2D"/>
<path d="M42.3932 44.7459C42.2744 44.7459 42.1556 44.742 42.0329 44.7344C41.5921 44.7037 41.2586 44.3199 41.2893 43.8785C41.32 43.4372 41.7033 43.1071 42.1441 43.134C43.3016 43.2146 44.4937 42.7041 45.1837 41.8329C45.8851 40.9387 46.0614 39.6722 45.613 38.6743C45.4788 38.375 45.3101 38.1524 45.13 38.0296C44.8617 37.8492 44.4554 37.7916 44.0606 37.7494C43.7463 37.7149 43.4166 37.688 43.133 37.7341C42.5312 37.8338 41.9869 38.3596 41.8681 38.9622C41.7493 39.5609 42.0521 40.2556 42.5734 40.5779C42.7267 40.6739 42.8723 40.7199 42.9835 40.7161C43.3246 40.7007 43.7348 40.1481 43.9303 39.8833C44.1947 39.5302 44.693 39.4534 45.0495 39.7182C45.4021 39.9831 45.4788 40.482 45.2143 40.8389C44.8464 41.3378 44.1602 42.2628 43.0602 42.3165C42.6232 42.3395 42.1632 42.209 41.7339 41.9442C40.6415 41.2688 40.0512 39.9178 40.3004 38.6552C40.5495 37.3925 41.6075 36.3678 42.8762 36.1605C43.3591 36.0799 43.8306 36.1222 44.2369 36.1644C44.808 36.2258 45.4635 36.3256 46.0346 36.7132C46.4677 37.0087 46.8204 37.4501 47.0772 38.0296C47.7594 39.5532 47.5065 41.4837 46.4447 42.8346C45.498 44.0397 43.9724 44.7574 42.3971 44.7574L42.3932 44.7459Z" fill="#D69A2D"/>
<path d="M33.6769 26.4468C33.3242 26.4468 32.9984 26.2089 32.9026 25.8481C32.7914 25.4221 33.0444 24.9846 33.4737 24.8695C34.3361 24.643 35.1027 24.0405 35.5282 23.2576C35.9537 22.4746 36.0457 21.5037 35.7697 20.6555C35.6125 20.1719 35.3481 19.7766 35.0261 19.5387C34.6504 19.2662 34.1368 19.1472 33.6845 19.0704C33.2897 19.0014 32.8336 18.9438 32.4503 19.0397C31.929 19.1702 31.4729 19.65 31.3732 20.1796C31.2736 20.7092 31.5189 21.3233 31.9558 21.6341C32.1552 21.7761 32.3736 21.8414 32.527 21.8107C32.6036 21.7953 32.6688 21.7262 32.6764 21.6994C32.6726 21.4269 32.6649 20.9472 33.0253 20.6133C33.2207 20.429 33.4814 20.3408 33.7535 20.36C34.1943 20.3945 34.5201 20.7821 34.4856 21.2196C34.4703 21.4077 34.3936 21.5766 34.271 21.7032C34.271 22.4823 33.6692 23.1962 32.8643 23.3727C32.2663 23.5032 31.5955 23.3458 31.0244 22.9352C30.0738 22.2559 29.5832 21.0278 29.8017 19.8764C30.0202 18.7289 30.9286 17.7656 32.0632 17.4816C32.7339 17.3127 33.3971 17.3894 33.9528 17.4854C34.5508 17.589 35.3212 17.7694 35.969 18.2376C36.567 18.6751 37.0269 19.3391 37.2914 20.1489C37.7015 21.4077 37.5674 22.8507 36.9349 24.0136C36.3025 25.1765 35.1602 26.0707 33.8838 26.4046C33.8149 26.4238 33.7459 26.4315 33.6807 26.4315L33.6769 26.4468Z" fill="#D69A2D"/>
<path d="M31.4768 19.151C31.4078 19.151 31.335 19.1434 31.2622 19.1203C30.3921 18.8786 29.6485 18.2837 29.2307 17.4816C28.809 16.6794 28.74 15.7315 29.0352 14.8756C29.1463 14.5571 29.2996 14.2731 29.407 14.0889C29.9628 13.1332 30.6374 12.523 31.4116 12.2736C31.8946 12.12 32.3661 12.12 32.6842 12.1354C33.0713 12.1546 33.5696 12.216 34.0066 12.5345C34.4857 12.8876 34.7655 13.4748 34.754 14.1042C34.7425 14.6032 34.5585 15.0944 34.2174 15.5319C33.9453 15.8812 33.4431 15.9426 33.0943 15.6701C32.7455 15.3976 32.6842 14.8948 32.9563 14.5456C33.079 14.3882 33.1518 14.2155 33.1557 14.0697C33.1557 13.9546 33.1097 13.8586 33.0637 13.8241C32.9947 13.7742 32.8452 13.7435 32.6114 13.732C32.3086 13.7166 32.0824 13.7358 31.9023 13.7934C31.519 13.9162 31.1433 14.2846 30.7945 14.8872C30.6757 15.0906 30.599 15.2479 30.5492 15.3938C30.3997 15.8274 30.4381 16.3264 30.6489 16.7293C30.8597 17.1323 31.2507 17.447 31.6915 17.5698C32.1169 17.6888 32.3661 18.1263 32.2511 18.5562C32.1514 18.9093 31.8333 19.1434 31.4806 19.1434L31.4768 19.151Z" fill="#D69A2D"/>
<path d="M33.9184 43.7979C33.8226 43.7979 33.7268 43.7787 33.6309 43.7442C33.2208 43.583 33.0138 43.1224 33.1748 42.7079C33.4623 41.9634 33.5274 41.1229 33.3626 40.34C33.3396 40.2325 33.3051 40.0943 33.2553 40.0061C33.1901 39.8909 33.0483 39.7758 32.8452 39.6722C32.1782 39.3383 31.3311 39.4611 30.9555 39.9485C30.7178 40.2517 30.6872 40.7122 30.8788 40.9962C31.0475 41.2419 31.4461 41.3532 31.6723 41.215C32.0479 40.9847 32.5424 41.1037 32.7723 41.4798C33.0023 41.8559 32.8835 42.351 32.5079 42.5813C31.5573 43.1647 30.2042 42.8538 29.5564 41.8981C28.9815 41.05 29.0351 39.818 29.6906 38.9698C30.5377 37.8722 32.205 37.5613 33.5619 38.2406C34.0526 38.4863 34.4167 38.8125 34.6428 39.2078C34.8038 39.4918 34.8805 39.7835 34.9265 40.0061C35.1565 41.0884 35.0645 42.2512 34.6658 43.2836C34.5432 43.6022 34.2404 43.7941 33.9184 43.7941V43.7979Z" fill="#D69A2D"/>
<path d="M41.7339 72.2673C40.9635 72.2673 40.1777 72.0255 39.53 71.5457C38.4605 70.7551 37.8204 69.4272 37.8204 67.9957C37.8204 66.7791 38.2727 65.5088 39.1045 64.4226C39.7139 63.6244 40.3924 63.1715 41.1245 63.0794C41.5615 63.0218 41.9639 63.3327 42.0176 63.7702C42.0751 64.2077 41.7646 64.6107 41.3276 64.6644C41.0402 64.7028 40.7105 64.9523 40.3732 65.3936C39.7561 66.2034 39.415 67.1283 39.4188 67.9919C39.4188 68.9091 39.8289 69.7765 40.4806 70.2601C41.1437 70.7475 42.0789 70.8089 42.7037 70.4021C43.1292 70.1257 43.3975 69.6729 43.5508 69.339C43.8076 68.7786 43.8613 68.2452 43.6965 67.8767C43.524 67.4853 43.041 67.232 42.6194 67.3087C42.2016 67.3855 41.8374 67.7961 41.8144 68.2221C41.7914 68.6635 41.4158 69.0012 40.9712 68.9782C40.5304 68.9552 40.1931 68.5752 40.2161 68.1339C40.2812 66.9748 41.1897 65.9424 42.3281 65.7352C43.4665 65.5279 44.6815 66.1689 45.153 67.2281C45.5095 68.0302 45.4558 69.0166 44.9997 70.0068C44.6547 70.759 44.1602 71.3615 43.57 71.7453C43.0257 72.0984 42.3856 72.2711 41.7301 72.2711L41.7339 72.2673Z" fill="#D69A2D"/>
<path d="M43.317 85.4428C43.1445 85.4428 42.9682 85.4274 42.7842 85.389C41.4963 85.1396 40.2237 83.923 40.3272 82.3187C40.4384 80.6262 41.5193 79.5286 43.1445 79.4557C45.4711 79.3482 47.3186 81.1328 47.5869 82.856C47.6559 83.2936 47.357 83.7004 46.92 83.7695C46.483 83.8385 46.0767 83.5392 46.0077 83.1017C45.8199 81.8851 44.3519 81.0023 43.2135 81.0522C42.4124 81.0868 41.9754 81.5473 41.9217 82.4185C41.8757 83.1439 42.4737 83.6965 43.0831 83.8155C43.5929 83.9153 43.9417 83.6927 44.1142 83.1631C44.2522 82.7409 44.7007 82.5145 45.1223 82.6488C45.5439 82.787 45.7701 83.236 45.6359 83.6582C45.2718 84.7827 44.3902 85.4389 43.3131 85.4389L43.317 85.4428Z" fill="#D69A2D"/>
<path d="M41.458 81.6279C41.3583 81.6279 41.2548 81.6087 41.1552 81.5665C39.7063 80.9716 38.5066 79.755 38.0198 78.3925C37.4755 76.8612 37.8818 75.3414 39.1313 74.2246C40.4806 73.0195 42.5006 72.605 43.8306 73.2575C44.8195 73.741 45.3332 74.7466 45.245 76.0131C45.176 76.984 44.5781 77.9742 43.7156 78.5422C42.9644 79.0373 42.1211 79.1563 41.3392 78.8761C40.4537 78.5614 39.806 77.7785 39.7331 76.9265C39.6948 76.4851 40.0206 76.0975 40.4576 76.0591C40.8984 76.0207 41.2855 76.347 41.3238 76.7845C41.343 77.0071 41.5845 77.2642 41.8719 77.3678C42.2553 77.5022 42.6079 77.3525 42.8379 77.2028C43.2825 76.9111 43.616 76.3738 43.6505 75.9018C43.7156 74.9845 43.271 74.7658 43.1253 74.6928C42.3856 74.3282 41.044 74.6621 40.1931 75.4182C39.6603 75.8941 39.1122 76.7 39.5223 77.8552C39.8519 78.7879 40.7297 79.6629 41.757 80.0851C42.1671 80.2539 42.3626 80.7183 42.1939 81.129C42.0674 81.4398 41.7685 81.624 41.4542 81.624L41.458 81.6279Z" fill="#D69A2D"/>
<path d="M34.6313 81.4667H20.1732C19.7324 81.4667 19.3721 81.1097 19.3721 80.6645C19.3721 80.2232 19.7285 79.8624 20.1732 79.8624H34.6313C35.0721 79.8624 35.4324 80.2193 35.4324 80.6645C35.4324 81.1059 35.0759 81.4667 34.6313 81.4667Z" fill="#D69A2D"/>
</g>
<defs>
<clipPath id="clip0_39_430">
<rect width="55" height="91" fill="white"/>
</clipPath>
</defs>
</svg>
