<svg width="269" height="61" viewBox="0 0 269 61" fill="none" xmlns="http://www.w3.org/2000/svg">
<path d="M151.975 48.05C151.755 49.87 154.235 50.53 156.055 50.09C157.875 49.65 158.245 56.58 152.485 57.31C146.725 58.04 141.095 56.33 142.425 48.49C142.425 48.49 138.195 57.39 148.405 60.01C158.615 62.63 163.865 53.16 162.035 48.49C160.215 43.82 152.625 44.41 151.975 48.05Z" fill="url(#paint0_linear_5_1908)"/>
<path d="M190.545 54.65C190.545 54.65 201.845 56.26 206.665 50.28C211.475 44.3 206.295 40.92 204.545 41.7C202.795 42.48 204.015 43.85 205.215 44.75C206.415 45.65 206.165 54.8 190.545 54.65Z" fill="url(#paint1_linear_5_1908)"/>
<path d="M267.455 40.11C266.635 38.08 265.175 36.32 263.415 35.15C262.985 34.85 262.515 34.59 262.035 34.34C261.555 34.09 261.175 33.94 260.655 33.72C259.705 33.37 258.755 33.05 257.785 32.86C255.855 32.44 253.915 32.46 252.145 32.7C250.375 32.97 248.755 33.5 247.355 34.14C245.945 34.77 244.745 35.53 243.735 36.25C242.885 36.86 242.165 37.45 241.575 37.98C241.905 37.54 242.245 37.09 242.625 36.6C243.185 35.86 243.825 35.09 244.505 34.28C245.185 33.47 245.925 32.64 246.715 31.81C248.285 30.15 250.105 28.51 252.075 27.17C254.065 25.85 256.245 24.86 258.405 24.59C259.485 24.44 260.495 24.49 261.455 24.71C262.405 24.9 263.205 25.33 263.775 25.89C264.345 26.46 264.635 27.19 264.735 27.87C264.825 28.56 264.735 29.19 264.575 29.68C264.415 30.17 264.175 30.52 263.975 30.72C263.775 30.92 263.625 30.99 263.625 30.99C263.625 30.99 263.785 30.96 264.045 30.81C264.305 30.65 264.655 30.35 264.935 29.84C265.225 29.34 265.465 28.66 265.485 27.83C265.515 27.01 265.275 26.02 264.625 25.16C263.985 24.3 262.945 23.67 261.835 23.33C260.735 22.96 259.455 22.85 258.225 22.97C256.975 23.06 255.725 23.43 254.525 23.9C253.325 24.38 252.165 25 251.105 25.74C248.965 27.2 247.135 29.01 245.595 30.81C244.055 32.62 242.805 34.44 241.825 36.05C241.765 36.15 241.705 36.25 241.645 36.35C243.855 30.52 243.455 22.54 236.545 17.42C225.025 8.89002 217.145 16.69 216.055 21.58C214.965 26.47 220.575 31.57 225.315 28.51C230.055 25.45 228.155 20.78 225.315 21C222.475 21.22 222.835 24.43 222.835 24.43C219.115 25.6 219.715 21.35 220.315 19.27C220.975 19.82 223.765 20.04 225.015 19.6C223.925 19.38 224.085 16.87 225.995 16.54C227.915 16.21 235.355 16.61 239.445 23.38C242.915 29.11 240.885 36.91 237.105 41.51C236.735 41.85 236.365 42.2 235.995 42.57C235.635 42.94 235.275 43.31 234.915 43.68C229.475 49.27 224.355 55.05 217.545 56.7C214.885 57.34 211.565 57.71 208.815 57.78C209.725 57.67 210.725 57.52 211.805 57.28C212.395 57.16 213.005 57.03 213.625 56.86C214.255 56.71 214.895 56.52 215.555 56.29C216.215 56.09 216.885 55.86 217.555 55.58C217.895 55.45 218.235 55.31 218.585 55.17C218.915 55.01 219.255 54.84 219.595 54.68C219.935 54.51 220.285 54.36 220.625 54.17C220.955 53.97 221.295 53.78 221.635 53.58C222.325 53.21 222.975 52.74 223.625 52.27C224.925 51.32 226.135 50.19 227.205 48.94C227.345 48.77 227.465 48.66 227.625 48.45L227.975 47.97L228.665 47.01C229.115 46.35 229.535 45.62 229.955 44.92C230.705 43.49 231.305 41.99 231.635 40.46C231.955 38.93 231.995 37.37 231.675 35.93C231.365 34.5 230.645 33.2 229.605 32.37C229.105 31.94 228.495 31.67 227.895 31.54C227.735 31.53 227.585 31.52 227.435 31.51C227.345 31.51 227.315 31.5 227.185 31.5L226.995 31.53C226.765 31.55 226.435 31.63 226.185 31.74C225.135 32.17 224.685 33.18 224.715 33.92C224.715 34.7 225.185 35.17 225.485 35.37C225.805 35.58 226.015 35.6 226.005 35.61C226.005 35.6 225.805 35.54 225.545 35.29C225.285 35.06 224.975 34.57 225.065 33.93C225.125 33.31 225.605 32.59 226.415 32.36C227.235 32.12 228.215 32.37 228.955 33.13C229.705 33.86 230.205 34.96 230.395 36.19C230.595 37.42 230.465 38.77 230.145 40.12C229.815 41.48 229.175 42.8 228.485 44.11C228.095 44.74 227.735 45.36 227.285 46L226.585 46.95L226.235 47.43C226.155 47.53 225.995 47.7 225.875 47.83C224.915 48.98 223.815 50.04 222.625 50.93C222.025 51.38 221.435 51.83 220.805 52.21C220.495 52.41 220.185 52.61 219.875 52.8C219.555 52.98 219.235 53.14 218.915 53.32C218.595 53.49 218.285 53.66 217.965 53.82C217.645 53.97 217.325 54.11 217.005 54.26C216.385 54.57 215.755 54.83 215.125 55.07C214.515 55.33 213.895 55.54 213.305 55.74C212.875 55.9 212.445 56.04 212.025 56.17C219.785 52.77 222.845 45.48 223.065 40.33C223.355 33.42 216.135 26.28 208.915 26.31C201.695 26.34 198.925 31.29 199.655 35.36C200.155 38.15 203.485 39.83 206.295 39.39C209.105 38.95 209.615 34.98 208.155 33.67C206.695 32.36 204.475 33.23 204.765 35.46C202.575 35.46 203.215 29.68 207.535 29.41C211.855 29.14 218.415 34.58 217.705 42.19C216.995 49.8 207.685 56.82 198.495 56.68C192.525 56.59 186.055 54.02 181.955 52C188.485 53.79 195.935 52.7 197.975 47.42C199.365 43.41 196.225 39.45 192.875 40.34C189.525 41.23 190.325 45.38 192.145 46.04C193.965 46.7 195.505 45.53 195.205 44.44C195.935 46.55 194.335 51.8 187.915 50.35C182.745 49.18 179.465 44.65 174.055 41.37C179.865 40.49 187.625 37.2 190.445 26.36C192.185 19.68 191.175 13.66 187.535 8.95002C182.755 2.77002 174.495 1.85101e-05 168.445 1.79812e-05C158.605 1.7121e-05 149.955 5.51001 148.325 12.81C147.445 16.75 149.725 19.18 152.375 19.84C154.525 20.38 156.445 19.7 156.845 18.27C157.345 16.46 156.465 15.77 156.065 15.56C155.175 15.09 153.815 15.35 153.155 16.12C153.045 16.24 152.775 16.13 152.565 15.97C151.695 15.31 150.895 13.39 152.465 11.03C154.465 8.03002 160.425 1.24002 172.605 2.91002C181.035 4.00002 189.775 10.07 190.315 21.16C190.315 21.16 190.315 21.74 190.315 21.98C190.215 23.57 190.045 24.41 189.595 26.13C187.685 33.45 183.525 37.19 179.295 39.05C179.875 38.62 180.355 38.15 180.735 37.64C180.815 37.57 180.895 37.5 180.985 37.42C181.715 36.74 182.565 35.88 183.455 34.81C184.335 33.73 185.265 32.43 186.045 30.88C186.795 29.32 187.465 27.51 187.675 25.48C187.805 24.47 187.765 23.42 187.685 22.36C187.535 21.3 187.355 20.22 186.985 19.17C186.655 18.11 186.155 17.1 185.625 16.09C185.045 15.13 184.455 14.1 183.615 13.24C182.005 11.47 179.835 10.23 177.555 9.53002C175.265 8.82002 172.825 8.66002 170.495 9.04002C168.175 9.42002 165.885 10.38 164.245 12.07C162.585 13.74 161.835 16.13 161.995 18.21C162.015 18.74 162.095 19.22 162.185 19.75C162.275 20.19 162.405 20.7 162.575 21.17C162.905 22.1 163.405 22.99 164.155 23.62C164.345 23.78 164.545 23.93 164.755 24.05C165.385 24.51 166.155 24.79 166.995 24.79C169.105 24.79 170.805 23.08 170.805 20.98C170.805 18.88 169.105 17.17 166.995 17.17C165.425 17.17 164.085 18.12 163.505 19.46C163.455 19.06 163.405 18.6 163.405 18.16C163.385 16.37 163.995 14.52 165.385 13.2C166.755 11.87 168.705 11.04 170.765 10.72C172.825 10.4 175.015 10.57 177.055 11.17C179.095 11.77 180.985 12.87 182.425 14.35C183.835 15.83 184.895 17.77 185.595 19.64C185.975 20.58 186.175 21.56 186.355 22.51C186.465 23.47 186.545 24.43 186.455 25.36C186.345 27.22 185.845 28.95 185.205 30.48C184.105 33.04 182.665 35.01 181.445 36.43C182.665 33.65 181.525 30.4 179.635 28.7C175.915 25.36 170.665 25.97 166.675 27.88C169.795 27.17 174.715 28.26 176.025 31.44C177.335 34.61 174.605 39.26 169.185 38.17C164.535 37.25 160.965 37.4 158.765 37.68C153.125 37.83 147.655 39.33 144.365 41.89C140.355 45 137.585 51.42 140.015 55.97C139.865 55.74 139.715 55.48 139.565 55.19C139.175 54.43 138.795 53.46 138.575 52.33C138.355 51.19 138.315 49.88 138.525 48.48C138.555 48.3 138.585 48.13 138.605 47.95L138.625 47.82C138.615 47.87 138.645 47.75 138.645 47.73L138.725 47.45C138.825 47.08 138.915 46.66 139.075 46.37C139.205 46.05 139.325 45.73 139.535 45.4L139.815 44.91L140.155 44.44C141.065 43.19 142.395 42.15 143.905 41.23C145.415 40.29 147.145 39.55 148.915 38.73C150.705 37.91 152.515 37.07 154.325 36.23C156.145 35.35 158.005 34.39 159.695 33.09C160.525 32.4 161.345 31.68 161.955 30.74C162.305 30.31 162.525 29.78 162.785 29.3C162.965 28.77 163.215 28.27 163.285 27.72L163.435 26.92L163.465 26.12C163.505 25.59 163.425 25.08 163.345 24.58L163.295 24.21L163.295 24.16L163.265 24.04L163.245 23.96L163.195 23.8C163.135 23.58 163.095 23.4 162.945 23.08C162.825 22.79 162.685 22.51 162.525 22.3C162.375 22.07 162.215 21.85 162.015 21.66C160.485 20.1 158.385 19.8 156.725 20.21C155.885 20.42 155.095 20.84 154.535 21.45C154.395 21.62 154.285 21.74 154.145 21.95C154.065 22.1 153.985 22.22 153.905 22.4C153.735 22.77 153.625 23.12 153.565 23.45C153.305 24.81 153.775 26.04 154.455 26.71C155.155 27.4 155.945 27.51 156.415 27.49C156.655 27.51 156.835 27.45 156.955 27.45C157.075 27.43 157.135 27.43 157.135 27.43C157.135 27.43 157.075 27.43 156.955 27.42C156.835 27.4 156.655 27.42 156.425 27.36C155.975 27.3 155.315 27.02 154.855 26.38C154.395 25.75 154.205 24.71 154.535 23.7C154.615 23.45 154.735 23.2 154.865 23C154.925 22.89 155.055 22.75 155.145 22.62L155.425 22.37C155.845 22.02 156.395 21.79 157.015 21.71C158.245 21.54 159.745 21.99 160.555 23C160.765 23.23 160.925 23.56 160.995 23.78C161.055 23.86 161.095 24.11 161.135 24.33L161.165 24.49L161.185 24.57C161.155 24.44 161.185 24.55 161.175 24.52L161.175 24.54L161.175 24.58L161.195 24.88C161.215 25.28 161.265 25.68 161.215 26.06L161.175 26.65L161.035 27.22C160.695 28.75 159.525 30 158.135 31.11C156.695 32.19 154.975 33.06 153.195 33.89C151.395 34.75 149.605 35.62 147.835 36.47C146.045 37.3 144.275 38.23 142.645 39.33C141.005 40.41 139.525 41.77 138.535 43.39L138.165 43.99C138.065 44.2 137.965 44.41 137.865 44.62C137.655 45.02 137.515 45.48 137.385 45.92C137.225 46.38 137.195 46.75 137.135 47.14L137.085 47.43L137.055 47.62L137.055 47.77C137.035 47.97 137.025 48.17 137.015 48.37C136.935 49.96 137.175 51.41 137.595 52.62C137.995 53.83 138.575 54.79 139.115 55.5C139.645 56.22 140.175 56.69 140.535 57C140.895 57.3 141.115 57.44 141.115 57.44C141.115 57.44 140.915 57.26 140.615 56.87C140.115 55.37 136.845 43.81 152.505 41.81C164.545 40.27 169.695 45.65 176.775 49.88C181.515 52.85 191.505 58.16 202.335 58.11C203.095 58.11 203.815 58.07 204.525 58.01C204.125 58.08 203.905 58.11 203.905 58.11C203.905 58.11 204.695 58.15 206.085 58.08C206.335 58.07 206.605 58.05 206.895 58.03C211.175 58.68 219.205 59.21 225.425 55.61C227.855 54.91 230.365 55.53 231.855 55.87C230.295 58.27 233.575 60.2 235.255 59.32C236.935 58.44 237.335 55.11 235.255 53.71C232.715 52.41 230.495 52.56 228.765 53.17C229.455 52.59 230.125 52.03 230.765 51.47C235.285 48.36 238.425 48.43 240.605 48.92C238.475 52.2 242.955 54.83 245.255 53.62C247.555 52.42 248.095 47.88 245.255 45.96C242.185 44.34 239.375 44.7 237.065 45.8C240.245 43 242.625 41.34 244.865 41.92C244.815 43.12 245.575 45.26 248.315 44.82C251.045 44.38 253.295 40.88 250.775 37.98C249.185 36.16 245.905 36.19 242.195 38.04C242.735 37.65 243.355 37.25 244.055 36.84C245.095 36.22 246.325 35.63 247.705 35.1C249.075 34.57 250.635 34.21 252.285 34.02C253.935 33.87 255.695 33.96 257.445 34.4C258.325 34.59 259.185 34.91 260.045 35.26C260.405 35.43 260.935 35.66 261.305 35.88C261.695 36.1 262.075 36.33 262.445 36.61C263.965 37.65 265.155 39.13 265.825 40.84C267.205 44.27 266.385 48.45 264.255 51.17C263.185 52.52 261.735 53.45 260.215 53.53C258.595 53.65 257.025 53.41 256.085 52.49C255.855 52.28 255.685 52.03 255.535 51.77C256.045 52.24 256.725 52.53 257.475 52.53C259.065 52.53 260.355 51.24 260.355 49.65C260.355 48.06 259.065 46.77 257.475 46.77C256.655 46.77 255.915 47.12 255.385 47.67C255.035 47.98 254.765 48.44 254.595 48.9C254.365 49.52 254.255 50.24 254.345 51C254.435 51.75 254.745 52.56 255.335 53.2C255.915 53.85 256.725 54.3 257.585 54.55C258.435 54.8 259.385 54.87 260.255 54.85C261.215 54.85 262.235 54.58 263.125 54.09C264.015 53.6 264.795 52.93 265.455 52.15C266.775 50.59 267.655 48.63 268.015 46.55C268.375 44.47 268.265 42.22 267.425 40.19L267.455 40.11Z" fill="url(#paint2_linear_5_1908)"/>
<path d="M160.195 46.51C160.195 46.51 170.035 45.53 171.465 53.27C171.685 56.17 168.375 58.18 166.365 57.29C164.355 56.39 163.755 52.03 167.055 51.73C166.235 50.02 164.635 47.89 160.185 46.52L160.195 46.51Z" fill="url(#paint3_linear_5_1908)"/>
<path d="M144.015 50.72C144.015 48.71 145.645 47.07 147.655 47.07C149.665 47.07 151.305 48.7 151.305 50.72C151.305 52.74 149.675 54.37 147.655 54.37C145.635 54.37 144.015 52.74 144.015 50.72Z" fill="url(#paint4_linear_5_1908)"/>
<path d="M116.234 48.05C116.454 49.87 113.974 50.53 112.154 50.09C110.334 49.65 109.964 56.58 115.724 57.31C121.484 58.04 127.114 56.33 125.784 48.49C125.784 48.49 130.014 57.39 119.804 60.01C109.594 62.63 104.344 53.16 106.174 48.49C107.994 43.82 115.584 44.41 116.234 48.05Z" fill="url(#paint5_linear_5_1908)"/>
<path d="M77.6641 54.65C77.6641 54.65 66.3641 56.26 61.5441 50.28C56.7341 44.3 61.9141 40.92 63.6641 41.7C65.4141 42.48 64.1941 43.85 62.9941 44.75C61.7941 45.65 62.0441 54.8 77.6641 54.65Z" fill="url(#paint6_linear_5_1908)"/>
<path d="M0.75413 40.11C1.57413 38.08 3.03413 36.32 4.79413 35.15C5.22413 34.85 5.69413 34.59 6.17413 34.34C6.65413 34.09 7.03413 33.94 7.55413 33.72C8.50413 33.37 9.45413 33.05 10.4241 32.86C12.3541 32.44 14.2941 32.46 16.0641 32.7C17.8341 32.97 19.4541 33.5 20.8541 34.14C22.2641 34.77 23.4641 35.53 24.4741 36.25C25.3241 36.86 26.0441 37.45 26.6341 37.98C26.3041 37.54 25.9641 37.09 25.5841 36.6C25.0241 35.86 24.3841 35.09 23.7041 34.28C23.0241 33.47 22.2841 32.64 21.4941 31.81C19.9241 30.15 18.1041 28.51 16.1341 27.17C14.1441 25.85 11.9641 24.86 9.80413 24.59C8.72413 24.44 7.71413 24.49 6.75413 24.71C5.80413 24.9 5.00413 25.33 4.43413 25.89C3.86413 26.46 3.57413 27.19 3.47413 27.87C3.38413 28.56 3.47413 29.19 3.63413 29.68C3.79413 30.17 4.03413 30.52 4.23413 30.72C4.43413 30.92 4.58413 30.99 4.58413 30.99C4.58413 30.99 4.42413 30.96 4.16413 30.81C3.90413 30.65 3.55413 30.35 3.27413 29.84C2.98413 29.34 2.74413 28.66 2.72413 27.83C2.69413 27.01 2.93413 26.02 3.58413 25.16C4.22413 24.3 5.26413 23.67 6.37413 23.33C7.47413 22.96 8.75413 22.85 9.98413 22.97C11.2341 23.06 12.4841 23.43 13.6841 23.9C14.8841 24.38 16.0441 25 17.1041 25.74C19.2441 27.2 21.0741 29.01 22.6141 30.81C24.1541 32.62 25.4041 34.44 26.3841 36.05C26.4441 36.15 26.5041 36.25 26.5641 36.35C24.3541 30.52 24.7541 22.54 31.6641 17.42C43.1841 8.89 51.0641 16.69 52.1541 21.58C53.2441 26.47 47.6341 31.57 42.8941 28.51C38.1541 25.45 40.0541 20.78 42.8941 21C45.7341 21.22 45.3741 24.43 45.3741 24.43C49.0941 25.6 48.4941 21.35 47.8941 19.27C47.2341 19.82 44.4441 20.04 43.1941 19.6C44.2841 19.38 44.1241 16.87 42.2141 16.54C40.2941 16.21 32.8541 16.61 28.7641 23.38C25.2941 29.11 27.3241 36.91 31.1041 41.51C31.4741 41.85 31.8441 42.2 32.2141 42.57C32.5741 42.94 32.9341 43.31 33.2941 43.68C38.7341 49.27 43.8541 55.05 50.6641 56.7C53.3241 57.34 56.6441 57.71 59.3941 57.78C58.4841 57.67 57.4841 57.52 56.4041 57.28C55.8141 57.16 55.2041 57.03 54.5841 56.86C53.9541 56.71 53.3141 56.52 52.6541 56.29C51.9941 56.09 51.3241 55.86 50.6541 55.58C50.3141 55.45 49.9741 55.31 49.6241 55.17C49.2941 55.01 48.9541 54.84 48.6141 54.68C48.2741 54.51 47.9241 54.36 47.5841 54.17C47.2541 53.97 46.9141 53.78 46.5741 53.58C45.8841 53.21 45.2341 52.74 44.5841 52.27C43.2841 51.32 42.0741 50.19 41.0041 48.94C40.8641 48.77 40.7441 48.66 40.5841 48.45L40.2341 47.97L39.5441 47.01C39.0941 46.35 38.6741 45.62 38.2541 44.92C37.5041 43.49 36.9041 41.99 36.5741 40.46C36.2541 38.93 36.2141 37.37 36.5341 35.93C36.8441 34.5 37.5641 33.2 38.6041 32.37C39.1041 31.94 39.7141 31.67 40.3141 31.54C40.4741 31.53 40.6241 31.52 40.7741 31.51C40.8641 31.51 40.8941 31.5 41.0241 31.5L41.2141 31.53C41.4441 31.55 41.7741 31.63 42.0241 31.74C43.0741 32.17 43.5241 33.18 43.4941 33.92C43.4941 34.7 43.0241 35.17 42.7241 35.37C42.4041 35.58 42.1941 35.6 42.2041 35.61C42.2041 35.6 42.4041 35.54 42.6641 35.29C42.9241 35.06 43.2341 34.57 43.1441 33.93C43.0841 33.31 42.6041 32.59 41.7941 32.36C40.9741 32.12 39.9941 32.37 39.2541 33.13C38.5041 33.86 38.0041 34.96 37.8141 36.19C37.6141 37.42 37.7441 38.77 38.0641 40.12C38.3941 41.48 39.0341 42.8 39.7241 44.11C40.1141 44.74 40.4741 45.36 40.9241 46L41.6241 46.95L41.9741 47.43C42.0541 47.53 42.2141 47.7 42.3341 47.83C43.2941 48.98 44.3941 50.04 45.5841 50.93C46.1841 51.38 46.7741 51.83 47.4041 52.21C47.7141 52.41 48.0241 52.61 48.3341 52.8C48.6541 52.98 48.9741 53.14 49.2941 53.32C49.6141 53.49 49.9241 53.66 50.2441 53.82C50.5641 53.97 50.8841 54.11 51.2041 54.26C51.8241 54.57 52.4541 54.83 53.0841 55.07C53.6941 55.33 54.3141 55.54 54.9041 55.74C55.3341 55.9 55.7641 56.04 56.1841 56.17C48.4241 52.77 45.3641 45.48 45.1441 40.33C44.8541 33.42 52.0741 26.28 59.2941 26.31C66.5141 26.34 69.2841 31.29 68.5541 35.36C68.0541 38.15 64.7241 39.83 61.9141 39.39C59.1041 38.95 58.5941 34.98 60.0541 33.67C61.5141 32.36 63.7341 33.23 63.4441 35.46C65.6341 35.46 64.9941 29.68 60.6741 29.41C56.3541 29.14 49.7941 34.58 50.5041 42.19C51.2141 49.8 60.5241 56.82 69.7141 56.68C75.6841 56.59 82.1541 54.02 86.2541 52C79.7241 53.79 72.2741 52.7 70.2341 47.42C68.8441 43.41 71.9841 39.45 75.3341 40.34C78.6841 41.23 77.8841 45.38 76.0641 46.04C74.2441 46.7 72.7041 45.53 73.0041 44.44C72.2741 46.55 73.8741 51.8 80.2941 50.35C85.4641 49.18 88.7441 44.65 94.1541 41.37C88.3441 40.49 80.5841 37.2 77.7641 26.36C76.0241 19.68 77.0341 13.66 80.6741 8.95C85.4541 2.77 93.7141 4.37805e-06 99.7641 4.90696e-06C109.604 5.7672e-06 118.254 5.51 119.884 12.81C120.764 16.75 118.484 19.18 115.834 19.84C113.684 20.38 111.764 19.7 111.364 18.27C110.864 16.46 111.744 15.77 112.144 15.56C113.034 15.09 114.394 15.35 115.054 16.12C115.164 16.24 115.434 16.13 115.644 15.97C116.514 15.31 117.314 13.39 115.744 11.03C113.744 8.03 107.784 1.24001 95.6041 2.91C87.1741 4 78.4341 10.07 77.8941 21.16C77.8941 21.16 77.8941 21.74 77.8941 21.98C77.9941 23.57 78.1641 24.41 78.6141 26.13C80.5241 33.45 84.6841 37.19 88.9141 39.05C88.3341 38.62 87.8541 38.15 87.4741 37.64C87.3941 37.57 87.3141 37.5 87.2241 37.42C86.4941 36.74 85.6441 35.88 84.7541 34.81C83.8741 33.73 82.9441 32.43 82.1641 30.88C81.4141 29.32 80.7441 27.51 80.5341 25.48C80.4041 24.47 80.4441 23.42 80.5241 22.36C80.6741 21.3 80.8541 20.22 81.2241 19.17C81.5541 18.11 82.0541 17.1 82.5841 16.09C83.1641 15.13 83.7541 14.1 84.5941 13.24C86.2041 11.47 88.3741 10.23 90.6541 9.53C92.9441 8.82 95.3841 8.66 97.7141 9.04001C100.034 9.42001 102.324 10.38 103.964 12.07C105.624 13.74 106.374 16.13 106.214 18.21C106.194 18.74 106.114 19.22 106.024 19.75C105.934 20.19 105.804 20.7 105.634 21.17C105.304 22.1 104.804 22.99 104.054 23.62C103.864 23.78 103.664 23.93 103.454 24.05C102.824 24.51 102.054 24.79 101.214 24.79C99.1041 24.79 97.4041 23.08 97.4041 20.98C97.4041 18.88 99.1041 17.17 101.214 17.17C102.784 17.17 104.124 18.12 104.704 19.46C104.754 19.06 104.804 18.6 104.804 18.16C104.824 16.37 104.214 14.52 102.824 13.2C101.454 11.87 99.5041 11.04 97.4441 10.72C95.3841 10.4 93.1941 10.57 91.1541 11.17C89.1141 11.77 87.2241 12.87 85.7841 14.35C84.3741 15.83 83.3141 17.77 82.6141 19.64C82.2341 20.58 82.0341 21.56 81.8541 22.51C81.7441 23.47 81.6641 24.43 81.7541 25.36C81.8641 27.22 82.3641 28.95 83.0041 30.48C84.1041 33.04 85.5441 35.01 86.7641 36.43C85.5441 33.65 86.6841 30.4 88.5741 28.7C92.2941 25.36 97.5441 25.97 101.534 27.88C98.4141 27.17 93.4941 28.26 92.1841 31.44C90.8741 34.61 93.6041 39.26 99.0241 38.17C103.674 37.25 107.244 37.4 109.444 37.68C115.084 37.83 120.554 39.33 123.844 41.89C127.854 45 130.624 51.42 128.194 55.97C128.344 55.74 128.494 55.48 128.644 55.19C129.034 54.43 129.414 53.46 129.634 52.33C129.854 51.19 129.894 49.88 129.684 48.48C129.654 48.3 129.624 48.13 129.604 47.95L129.584 47.82C129.594 47.87 129.564 47.75 129.564 47.73L129.484 47.45C129.384 47.08 129.294 46.66 129.134 46.37C129.004 46.05 128.884 45.73 128.674 45.4L128.394 44.91L128.054 44.44C127.144 43.19 125.814 42.15 124.304 41.23C122.794 40.29 121.064 39.55 119.294 38.73C117.504 37.91 115.694 37.07 113.884 36.23C112.064 35.35 110.204 34.39 108.514 33.09C107.684 32.4 106.864 31.68 106.254 30.74C105.904 30.31 105.684 29.78 105.424 29.3C105.244 28.77 104.994 28.27 104.924 27.72L104.774 26.92L104.744 26.12C104.704 25.59 104.784 25.08 104.864 24.58L104.914 24.21L104.914 24.16L104.944 24.04L104.964 23.96L105.014 23.8C105.074 23.58 105.114 23.4 105.264 23.08C105.384 22.79 105.524 22.51 105.684 22.3C105.834 22.07 105.994 21.85 106.194 21.66C107.724 20.1 109.824 19.8 111.484 20.21C112.324 20.42 113.114 20.84 113.674 21.45C113.814 21.62 113.924 21.74 114.064 21.95C114.144 22.1 114.224 22.22 114.304 22.4C114.474 22.77 114.584 23.12 114.644 23.45C114.904 24.81 114.434 26.04 113.754 26.71C113.054 27.4 112.264 27.51 111.794 27.49C111.554 27.51 111.374 27.45 111.254 27.45C111.134 27.43 111.074 27.43 111.074 27.43C111.074 27.43 111.134 27.43 111.254 27.42C111.374 27.4 111.554 27.42 111.784 27.36C112.234 27.3 112.894 27.02 113.354 26.38C113.814 25.75 114.004 24.71 113.674 23.7C113.594 23.45 113.474 23.2 113.344 23C113.284 22.89 113.154 22.75 113.064 22.62L112.784 22.37C112.364 22.02 111.814 21.79 111.194 21.71C109.964 21.54 108.464 21.99 107.654 23C107.444 23.23 107.284 23.56 107.214 23.78C107.154 23.86 107.114 24.11 107.074 24.33L107.044 24.49L107.024 24.57C107.054 24.44 107.024 24.55 107.034 24.52L107.034 24.54L107.034 24.58L107.014 24.88C106.994 25.28 106.944 25.68 106.994 26.06L107.034 26.65L107.174 27.22C107.514 28.75 108.684 30 110.074 31.11C111.514 32.19 113.234 33.06 115.014 33.89C116.814 34.75 118.604 35.62 120.374 36.47C122.164 37.3 123.934 38.23 125.564 39.33C127.204 40.41 128.684 41.77 129.674 43.39L130.044 43.99C130.144 44.2 130.244 44.41 130.344 44.62C130.554 45.02 130.694 45.48 130.824 45.92C130.984 46.38 131.014 46.75 131.074 47.14L131.124 47.43L131.154 47.62L131.154 47.77C131.174 47.97 131.184 48.17 131.194 48.37C131.274 49.96 131.034 51.41 130.614 52.62C130.214 53.83 129.634 54.79 129.094 55.5C128.564 56.22 128.034 56.69 127.674 57C127.314 57.3 127.094 57.44 127.094 57.44C127.094 57.44 127.294 57.26 127.594 56.87C128.094 55.37 131.364 43.81 115.704 41.81C103.664 40.27 98.5141 45.65 91.4341 49.88C86.6941 52.85 76.7041 58.16 65.8741 58.11C65.1141 58.11 64.3941 58.07 63.6841 58.01C64.0841 58.08 64.3041 58.11 64.3041 58.11C64.3041 58.11 63.5141 58.15 62.1241 58.08C61.8741 58.07 61.6041 58.05 61.3141 58.03C57.0341 58.68 49.0041 59.21 42.7841 55.61C40.3541 54.91 37.8441 55.53 36.3541 55.87C37.9141 58.27 34.6341 60.2 32.9541 59.32C31.2741 58.44 30.8741 55.11 32.9541 53.71C35.4941 52.41 37.7141 52.56 39.4441 53.17C38.7541 52.59 38.0841 52.03 37.4441 51.47C32.9241 48.36 29.7841 48.43 27.6041 48.92C29.7341 52.2 25.2541 54.83 22.9541 53.62C20.6541 52.42 20.1141 47.88 22.9541 45.96C26.0241 44.34 28.8341 44.7 31.1441 45.8C27.9641 43 25.5841 41.34 23.3441 41.92C23.3941 43.12 22.6341 45.26 19.8941 44.82C17.1641 44.38 14.9141 40.88 17.4341 37.98C19.0241 36.16 22.3041 36.19 26.0141 38.04C25.4741 37.65 24.8541 37.25 24.1541 36.84C23.1141 36.22 21.8841 35.63 20.5041 35.1C19.1341 34.57 17.5741 34.21 15.9241 34.02C14.2741 33.87 12.5141 33.96 10.7641 34.4C9.88413 34.59 9.02413 34.91 8.16413 35.26C7.80413 35.43 7.27413 35.66 6.90413 35.88C6.51413 36.1 6.13413 36.33 5.76413 36.61C4.24413 37.65 3.05413 39.13 2.38413 40.84C1.00413 44.27 1.82413 48.45 3.95413 51.17C5.02413 52.52 6.47413 53.45 7.99413 53.53C9.61413 53.65 11.1841 53.41 12.1241 52.49C12.3541 52.28 12.5241 52.03 12.6741 51.77C12.1641 52.24 11.4841 52.53 10.7341 52.53C9.14413 52.53 7.85413 51.24 7.85413 49.65C7.85413 48.06 9.14413 46.77 10.7341 46.77C11.5541 46.77 12.2941 47.12 12.8241 47.67C13.1741 47.98 13.4441 48.44 13.6141 48.9C13.8441 49.52 13.9541 50.24 13.8641 51C13.7741 51.75 13.4641 52.56 12.8741 53.2C12.2941 53.85 11.4841 54.3 10.6241 54.55C9.77413 54.8 8.82413 54.87 7.95413 54.85C6.99413 54.85 5.97413 54.58 5.08413 54.09C4.19413 53.6 3.41413 52.93 2.75413 52.15C1.43413 50.59 0.554129 48.63 0.19413 46.55C-0.16587 44.47 -0.05587 42.22 0.78413 40.19L0.75413 40.11Z" fill="url(#paint7_linear_5_1908)"/>
<path d="M108.014 46.51C108.014 46.51 98.1741 45.53 96.7441 53.27C96.5241 56.17 99.8341 58.18 101.844 57.29C103.854 56.39 104.454 52.03 101.154 51.73C101.974 50.02 103.574 47.89 108.024 46.52L108.014 46.51Z" fill="url(#paint8_linear_5_1908)"/>
<path d="M124.194 50.72C124.194 48.71 122.564 47.07 120.554 47.07C118.544 47.07 116.904 48.7 116.904 50.72C116.904 52.74 118.534 54.37 120.554 54.37C122.574 54.37 124.194 52.74 124.194 50.72Z" fill="url(#paint9_linear_5_1908)"/>
<defs>
<linearGradient id="paint0_linear_5_1908" x1="141.555" y1="52.81" x2="162.395" y2="52.81" gradientUnits="userSpaceOnUse">
<stop stop-color="#D69A2D"/>
<stop offset="0.18" stop-color="#DDAB44"/>
<stop offset="1" stop-color="#FFF8AF"/>
</linearGradient>
<linearGradient id="paint1_linear_5_1908" x1="190.545" y1="48.22" x2="208.655" y2="48.22" gradientUnits="userSpaceOnUse">
<stop stop-color="#D69A2D"/>
<stop offset="0.18" stop-color="#DDAB44"/>
<stop offset="1" stop-color="#FFF8AF"/>
</linearGradient>
<linearGradient id="paint2_linear_5_1908" x1="137.025" y1="29.71" x2="268.235" y2="29.71" gradientUnits="userSpaceOnUse">
<stop stop-color="#D69A2D"/>
<stop offset="0.18" stop-color="#DDAB44"/>
<stop offset="1" stop-color="#FFF8AF"/>
</linearGradient>
<linearGradient id="paint3_linear_5_1908" x1="161.599" y1="45.3905" x2="170.219" y2="56.333" gradientUnits="userSpaceOnUse">
<stop stop-color="#D69A2D"/>
<stop offset="0.18" stop-color="#DDAB44"/>
<stop offset="1" stop-color="#FFF8AF"/>
</linearGradient>
<linearGradient id="paint4_linear_5_1908" x1="151.305" y1="50.72" x2="144.015" y2="50.72" gradientUnits="userSpaceOnUse">
<stop stop-color="#D69A2D"/>
<stop offset="0.18" stop-color="#DDAB44"/>
<stop offset="1" stop-color="#FFF8AF"/>
</linearGradient>
<linearGradient id="paint5_linear_5_1908" x1="126.654" y1="52.81" x2="105.814" y2="52.81" gradientUnits="userSpaceOnUse">
<stop stop-color="#D69A2D"/>
<stop offset="0.18" stop-color="#DDAB44"/>
<stop offset="1" stop-color="#FFF8AF"/>
</linearGradient>
<linearGradient id="paint6_linear_5_1908" x1="77.6641" y1="48.22" x2="59.5541" y2="48.22" gradientUnits="userSpaceOnUse">
<stop stop-color="#D69A2D"/>
<stop offset="0.18" stop-color="#DDAB44"/>
<stop offset="1" stop-color="#FFF8AF"/>
</linearGradient>
<linearGradient id="paint7_linear_5_1908" x1="131.184" y1="29.71" x2="-0.0258684" y2="29.71" gradientUnits="userSpaceOnUse">
<stop stop-color="#D69A2D"/>
<stop offset="0.18" stop-color="#DDAB44"/>
<stop offset="1" stop-color="#FFF8AF"/>
</linearGradient>
<linearGradient id="paint8_linear_5_1908" x1="106.611" y1="45.3905" x2="97.9907" y2="56.333" gradientUnits="userSpaceOnUse">
<stop stop-color="#D69A2D"/>
<stop offset="0.18" stop-color="#DDAB44"/>
<stop offset="1" stop-color="#FFF8AF"/>
</linearGradient>
<linearGradient id="paint9_linear_5_1908" x1="116.904" y1="50.72" x2="124.194" y2="50.72" gradientUnits="userSpaceOnUse">
<stop stop-color="#D69A2D"/>
<stop offset="0.18" stop-color="#DDAB44"/>
<stop offset="1" stop-color="#FFF8AF"/>
</linearGradient>
</defs>
</svg>
